<mxfile host="app.diagrams.net" agent="Mozilla/5.0 (Windows NT 10.0; Win64; x64) AppleWebKit/537.36 (KHTML, like Gecko) Chrome/139.0.0.0 Safari/537.36" version="28.1.0">
  <diagram name="Page-1" id="Ngn3t9yVT9YuLSXCenrd">
    <mxGraphModel dx="2830" dy="865" grid="1" gridSize="10" guides="1" tooltips="1" connect="1" arrows="1" fold="1" page="1" pageScale="1" pageWidth="1169" pageHeight="827" math="0" shadow="0">
      <root>
        <mxCell id="0" />
        <mxCell id="1" parent="0" />
        <mxCell id="1KYJLx7tUCPM3I3dIadq-1" value="Users" style="shape=table;startSize=30;container=1;collapsible=1;childLayout=tableLayout;fixedRows=1;rowLines=0;fontStyle=1;align=center;resizeLast=1;html=1;fillColor=#a20025;fontColor=#ffffff;strokeColor=#6F0000;fontFamily=Arial;points=[[0,0,0,0,0],[0,0.14,0,0,0],[0,0.17,0,0,0],[0,0.2,0,0,0],[0,0.23,0,0,0],[0,0.25,0,0,0],[0,0.5,0,0,0],[0,0.75,0,0,0],[0,1,0,0,0],[0.25,0,0,0,0],[0.25,1,0,0,0],[0.5,0,0,0,0],[0.5,1,0,0,0],[0.75,0,0,0,0],[0.75,1,0,0,0],[1,0,0,0,0],[1,0.14,0,0,0],[1,0.17,0,0,0],[1,0.2,0,0,0],[1,0.23,0,0,0],[1,0.25,0,0,0],[1,0.5,0,0,0],[1,0.75,0,0,0],[1,1,0,0,0]];" vertex="1" parent="1">
          <mxGeometry x="50" y="470" width="180" height="240" as="geometry" />
        </mxCell>
        <mxCell id="1KYJLx7tUCPM3I3dIadq-2" value="" style="shape=tableRow;horizontal=0;startSize=0;swimlaneHead=0;swimlaneBody=0;fillColor=none;collapsible=0;dropTarget=0;points=[[0,0.5],[1,0.5]];portConstraint=eastwest;top=0;left=0;right=0;bottom=1;" vertex="1" parent="1KYJLx7tUCPM3I3dIadq-1">
          <mxGeometry y="30" width="180" height="30" as="geometry" />
        </mxCell>
        <mxCell id="1KYJLx7tUCPM3I3dIadq-3" value="PK" style="shape=partialRectangle;connectable=0;fillColor=#e51400;top=0;left=0;bottom=0;right=0;fontStyle=1;overflow=hidden;whiteSpace=wrap;html=1;fontColor=#ffffff;strokeColor=#B20000;fontFamily=Arial;" vertex="1" parent="1KYJLx7tUCPM3I3dIadq-2">
          <mxGeometry width="30" height="30" as="geometry">
            <mxRectangle width="30" height="30" as="alternateBounds" />
          </mxGeometry>
        </mxCell>
        <mxCell id="1KYJLx7tUCPM3I3dIadq-4" value="user_id" style="shape=partialRectangle;connectable=0;fillColor=#e51400;top=0;left=0;bottom=0;right=0;align=left;spacingLeft=6;fontStyle=5;overflow=hidden;whiteSpace=wrap;html=1;fontColor=#ffffff;strokeColor=#B20000;fontFamily=Arial;" vertex="1" parent="1KYJLx7tUCPM3I3dIadq-2">
          <mxGeometry x="30" width="150" height="30" as="geometry">
            <mxRectangle width="150" height="30" as="alternateBounds" />
          </mxGeometry>
        </mxCell>
        <mxCell id="1KYJLx7tUCPM3I3dIadq-5" value="" style="shape=tableRow;horizontal=0;startSize=0;swimlaneHead=0;swimlaneBody=0;fillColor=none;collapsible=0;dropTarget=0;points=[[0,0.5],[1,0.5]];portConstraint=eastwest;top=0;left=0;right=0;bottom=0;" vertex="1" parent="1KYJLx7tUCPM3I3dIadq-1">
          <mxGeometry y="60" width="180" height="30" as="geometry" />
        </mxCell>
        <mxCell id="1KYJLx7tUCPM3I3dIadq-6" value="uk" style="shape=partialRectangle;connectable=0;fillColor=none;top=0;left=0;bottom=0;right=0;editable=1;overflow=hidden;whiteSpace=wrap;html=1;fontFamily=Arial;" vertex="1" parent="1KYJLx7tUCPM3I3dIadq-5">
          <mxGeometry width="30" height="30" as="geometry">
            <mxRectangle width="30" height="30" as="alternateBounds" />
          </mxGeometry>
        </mxCell>
        <mxCell id="1KYJLx7tUCPM3I3dIadq-7" value="user_name" style="shape=partialRectangle;connectable=0;fillColor=none;top=0;left=0;bottom=0;right=0;align=left;spacingLeft=6;overflow=hidden;whiteSpace=wrap;html=1;fontFamily=Arial;" vertex="1" parent="1KYJLx7tUCPM3I3dIadq-5">
          <mxGeometry x="30" width="150" height="30" as="geometry">
            <mxRectangle width="150" height="30" as="alternateBounds" />
          </mxGeometry>
        </mxCell>
        <mxCell id="1KYJLx7tUCPM3I3dIadq-8" value="" style="shape=tableRow;horizontal=0;startSize=0;swimlaneHead=0;swimlaneBody=0;fillColor=none;collapsible=0;dropTarget=0;points=[[0,0.5],[1,0.5]];portConstraint=eastwest;top=0;left=0;right=0;bottom=0;" vertex="1" parent="1KYJLx7tUCPM3I3dIadq-1">
          <mxGeometry y="90" width="180" height="30" as="geometry" />
        </mxCell>
        <mxCell id="1KYJLx7tUCPM3I3dIadq-9" value="" style="shape=partialRectangle;connectable=0;fillColor=none;top=0;left=0;bottom=0;right=0;editable=1;overflow=hidden;whiteSpace=wrap;html=1;fontFamily=Arial;" vertex="1" parent="1KYJLx7tUCPM3I3dIadq-8">
          <mxGeometry width="30" height="30" as="geometry">
            <mxRectangle width="30" height="30" as="alternateBounds" />
          </mxGeometry>
        </mxCell>
        <mxCell id="1KYJLx7tUCPM3I3dIadq-10" value="name" style="shape=partialRectangle;connectable=0;fillColor=none;top=0;left=0;bottom=0;right=0;align=left;spacingLeft=6;overflow=hidden;whiteSpace=wrap;html=1;fontFamily=Arial;" vertex="1" parent="1KYJLx7tUCPM3I3dIadq-8">
          <mxGeometry x="30" width="150" height="30" as="geometry">
            <mxRectangle width="150" height="30" as="alternateBounds" />
          </mxGeometry>
        </mxCell>
        <mxCell id="1KYJLx7tUCPM3I3dIadq-11" value="" style="shape=tableRow;horizontal=0;startSize=0;swimlaneHead=0;swimlaneBody=0;fillColor=none;collapsible=0;dropTarget=0;points=[[0,0.5],[1,0.5]];portConstraint=eastwest;top=0;left=0;right=0;bottom=0;" vertex="1" parent="1KYJLx7tUCPM3I3dIadq-1">
          <mxGeometry y="120" width="180" height="30" as="geometry" />
        </mxCell>
        <mxCell id="1KYJLx7tUCPM3I3dIadq-12" value="" style="shape=partialRectangle;connectable=0;fillColor=none;top=0;left=0;bottom=0;right=0;editable=1;overflow=hidden;whiteSpace=wrap;html=1;fontFamily=Arial;" vertex="1" parent="1KYJLx7tUCPM3I3dIadq-11">
          <mxGeometry width="30" height="30" as="geometry">
            <mxRectangle width="30" height="30" as="alternateBounds" />
          </mxGeometry>
        </mxCell>
        <mxCell id="1KYJLx7tUCPM3I3dIadq-13" value="dob" style="shape=partialRectangle;connectable=0;fillColor=none;top=0;left=0;bottom=0;right=0;align=left;spacingLeft=6;overflow=hidden;whiteSpace=wrap;html=1;fontFamily=Arial;" vertex="1" parent="1KYJLx7tUCPM3I3dIadq-11">
          <mxGeometry x="30" width="150" height="30" as="geometry">
            <mxRectangle width="150" height="30" as="alternateBounds" />
          </mxGeometry>
        </mxCell>
        <mxCell id="1KYJLx7tUCPM3I3dIadq-29" style="shape=tableRow;horizontal=0;startSize=0;swimlaneHead=0;swimlaneBody=0;fillColor=none;collapsible=0;dropTarget=0;points=[[0,0.5],[1,0.5]];portConstraint=eastwest;top=0;left=0;right=0;bottom=0;" vertex="1" parent="1KYJLx7tUCPM3I3dIadq-1">
          <mxGeometry y="150" width="180" height="30" as="geometry" />
        </mxCell>
        <mxCell id="1KYJLx7tUCPM3I3dIadq-30" style="shape=partialRectangle;connectable=0;fillColor=none;top=0;left=0;bottom=0;right=0;editable=1;overflow=hidden;whiteSpace=wrap;html=1;fontFamily=Arial;" vertex="1" parent="1KYJLx7tUCPM3I3dIadq-29">
          <mxGeometry width="30" height="30" as="geometry">
            <mxRectangle width="30" height="30" as="alternateBounds" />
          </mxGeometry>
        </mxCell>
        <mxCell id="1KYJLx7tUCPM3I3dIadq-31" value="gender" style="shape=partialRectangle;connectable=0;fillColor=none;top=0;left=0;bottom=0;right=0;align=left;spacingLeft=6;overflow=hidden;whiteSpace=wrap;html=1;fontFamily=Arial;" vertex="1" parent="1KYJLx7tUCPM3I3dIadq-29">
          <mxGeometry x="30" width="150" height="30" as="geometry">
            <mxRectangle width="150" height="30" as="alternateBounds" />
          </mxGeometry>
        </mxCell>
        <mxCell id="1KYJLx7tUCPM3I3dIadq-26" style="shape=tableRow;horizontal=0;startSize=0;swimlaneHead=0;swimlaneBody=0;fillColor=none;collapsible=0;dropTarget=0;points=[[0,0.5],[1,0.5]];portConstraint=eastwest;top=0;left=0;right=0;bottom=0;" vertex="1" parent="1KYJLx7tUCPM3I3dIadq-1">
          <mxGeometry y="180" width="180" height="30" as="geometry" />
        </mxCell>
        <mxCell id="1KYJLx7tUCPM3I3dIadq-27" value="uk" style="shape=partialRectangle;connectable=0;fillColor=none;top=0;left=0;bottom=0;right=0;editable=1;overflow=hidden;whiteSpace=wrap;html=1;fontFamily=Arial;" vertex="1" parent="1KYJLx7tUCPM3I3dIadq-26">
          <mxGeometry width="30" height="30" as="geometry">
            <mxRectangle width="30" height="30" as="alternateBounds" />
          </mxGeometry>
        </mxCell>
        <mxCell id="1KYJLx7tUCPM3I3dIadq-28" value="email" style="shape=partialRectangle;connectable=0;fillColor=none;top=0;left=0;bottom=0;right=0;align=left;spacingLeft=6;overflow=hidden;whiteSpace=wrap;html=1;fontFamily=Arial;" vertex="1" parent="1KYJLx7tUCPM3I3dIadq-26">
          <mxGeometry x="30" width="150" height="30" as="geometry">
            <mxRectangle width="150" height="30" as="alternateBounds" />
          </mxGeometry>
        </mxCell>
        <mxCell id="1KYJLx7tUCPM3I3dIadq-23" style="shape=tableRow;horizontal=0;startSize=0;swimlaneHead=0;swimlaneBody=0;fillColor=none;collapsible=0;dropTarget=0;points=[[0,0.5],[1,0.5]];portConstraint=eastwest;top=0;left=0;right=0;bottom=0;" vertex="1" parent="1KYJLx7tUCPM3I3dIadq-1">
          <mxGeometry y="210" width="180" height="30" as="geometry" />
        </mxCell>
        <mxCell id="1KYJLx7tUCPM3I3dIadq-24" style="shape=partialRectangle;connectable=0;fillColor=none;top=0;left=0;bottom=0;right=0;editable=1;overflow=hidden;whiteSpace=wrap;html=1;fontFamily=Arial;" vertex="1" parent="1KYJLx7tUCPM3I3dIadq-23">
          <mxGeometry width="30" height="30" as="geometry">
            <mxRectangle width="30" height="30" as="alternateBounds" />
          </mxGeometry>
        </mxCell>
        <mxCell id="1KYJLx7tUCPM3I3dIadq-25" value="password" style="shape=partialRectangle;connectable=0;fillColor=none;top=0;left=0;bottom=0;right=0;align=left;spacingLeft=6;overflow=hidden;whiteSpace=wrap;html=1;fontFamily=Arial;" vertex="1" parent="1KYJLx7tUCPM3I3dIadq-23">
          <mxGeometry x="30" width="150" height="30" as="geometry">
            <mxRectangle width="150" height="30" as="alternateBounds" />
          </mxGeometry>
        </mxCell>
        <mxCell id="1KYJLx7tUCPM3I3dIadq-32" value="user_rewards_total" style="shape=table;startSize=30;container=1;collapsible=1;childLayout=tableLayout;fixedRows=1;rowLines=0;fontStyle=1;align=center;resizeLast=1;html=1;fillColor=#a20025;fontColor=#ffffff;strokeColor=#6F0000;fontFamily=Arial;" vertex="1" parent="1">
          <mxGeometry x="-270" y="470" width="180" height="240" as="geometry" />
        </mxCell>
        <mxCell id="1KYJLx7tUCPM3I3dIadq-33" value="" style="shape=tableRow;horizontal=0;startSize=0;swimlaneHead=0;swimlaneBody=0;fillColor=none;collapsible=0;dropTarget=0;points=[[0,0.5],[1,0.5]];portConstraint=eastwest;top=0;left=0;right=0;bottom=1;" vertex="1" parent="1KYJLx7tUCPM3I3dIadq-32">
          <mxGeometry y="30" width="180" height="30" as="geometry" />
        </mxCell>
        <mxCell id="1KYJLx7tUCPM3I3dIadq-34" value="PK, FK" style="shape=partialRectangle;connectable=0;fillColor=#e51400;top=0;left=0;bottom=0;right=0;fontStyle=1;overflow=hidden;whiteSpace=wrap;html=1;fontColor=#ffffff;strokeColor=#B20000;fontFamily=Arial;" vertex="1" parent="1KYJLx7tUCPM3I3dIadq-33">
          <mxGeometry width="30" height="30" as="geometry">
            <mxRectangle width="30" height="30" as="alternateBounds" />
          </mxGeometry>
        </mxCell>
        <mxCell id="1KYJLx7tUCPM3I3dIadq-35" value="user_id" style="shape=partialRectangle;connectable=0;fillColor=#e51400;top=0;left=0;bottom=0;right=0;align=left;spacingLeft=6;fontStyle=5;overflow=hidden;whiteSpace=wrap;html=1;fontColor=#ffffff;strokeColor=#B20000;fontFamily=Arial;" vertex="1" parent="1KYJLx7tUCPM3I3dIadq-33">
          <mxGeometry x="30" width="150" height="30" as="geometry">
            <mxRectangle width="150" height="30" as="alternateBounds" />
          </mxGeometry>
        </mxCell>
        <mxCell id="1KYJLx7tUCPM3I3dIadq-36" value="" style="shape=tableRow;horizontal=0;startSize=0;swimlaneHead=0;swimlaneBody=0;fillColor=none;collapsible=0;dropTarget=0;points=[[0,0.5],[1,0.5]];portConstraint=eastwest;top=0;left=0;right=0;bottom=0;" vertex="1" parent="1KYJLx7tUCPM3I3dIadq-32">
          <mxGeometry y="60" width="180" height="30" as="geometry" />
        </mxCell>
        <mxCell id="1KYJLx7tUCPM3I3dIadq-37" value="" style="shape=partialRectangle;connectable=0;fillColor=none;top=0;left=0;bottom=0;right=0;editable=1;overflow=hidden;whiteSpace=wrap;html=1;fontFamily=Arial;" vertex="1" parent="1KYJLx7tUCPM3I3dIadq-36">
          <mxGeometry width="30" height="30" as="geometry">
            <mxRectangle width="30" height="30" as="alternateBounds" />
          </mxGeometry>
        </mxCell>
        <mxCell id="1KYJLx7tUCPM3I3dIadq-38" value="badges_total" style="shape=partialRectangle;connectable=0;fillColor=none;top=0;left=0;bottom=0;right=0;align=left;spacingLeft=6;overflow=hidden;whiteSpace=wrap;html=1;fontFamily=Arial;" vertex="1" parent="1KYJLx7tUCPM3I3dIadq-36">
          <mxGeometry x="30" width="150" height="30" as="geometry">
            <mxRectangle width="150" height="30" as="alternateBounds" />
          </mxGeometry>
        </mxCell>
        <mxCell id="1KYJLx7tUCPM3I3dIadq-39" value="" style="shape=tableRow;horizontal=0;startSize=0;swimlaneHead=0;swimlaneBody=0;fillColor=none;collapsible=0;dropTarget=0;points=[[0,0.5],[1,0.5]];portConstraint=eastwest;top=0;left=0;right=0;bottom=0;" vertex="1" parent="1KYJLx7tUCPM3I3dIadq-32">
          <mxGeometry y="90" width="180" height="30" as="geometry" />
        </mxCell>
        <mxCell id="1KYJLx7tUCPM3I3dIadq-40" value="" style="shape=partialRectangle;connectable=0;fillColor=none;top=0;left=0;bottom=0;right=0;editable=1;overflow=hidden;whiteSpace=wrap;html=1;fontFamily=Arial;" vertex="1" parent="1KYJLx7tUCPM3I3dIadq-39">
          <mxGeometry width="30" height="30" as="geometry">
            <mxRectangle width="30" height="30" as="alternateBounds" />
          </mxGeometry>
        </mxCell>
        <mxCell id="1KYJLx7tUCPM3I3dIadq-41" value="streaks_total" style="shape=partialRectangle;connectable=0;fillColor=none;top=0;left=0;bottom=0;right=0;align=left;spacingLeft=6;overflow=hidden;whiteSpace=wrap;html=1;fontFamily=Arial;" vertex="1" parent="1KYJLx7tUCPM3I3dIadq-39">
          <mxGeometry x="30" width="150" height="30" as="geometry">
            <mxRectangle width="150" height="30" as="alternateBounds" />
          </mxGeometry>
        </mxCell>
        <mxCell id="1KYJLx7tUCPM3I3dIadq-42" value="" style="shape=tableRow;horizontal=0;startSize=0;swimlaneHead=0;swimlaneBody=0;fillColor=none;collapsible=0;dropTarget=0;points=[[0,0.5],[1,0.5]];portConstraint=eastwest;top=0;left=0;right=0;bottom=0;" vertex="1" parent="1KYJLx7tUCPM3I3dIadq-32">
          <mxGeometry y="120" width="180" height="30" as="geometry" />
        </mxCell>
        <mxCell id="1KYJLx7tUCPM3I3dIadq-43" value="" style="shape=partialRectangle;connectable=0;fillColor=none;top=0;left=0;bottom=0;right=0;editable=1;overflow=hidden;whiteSpace=wrap;html=1;fontFamily=Arial;" vertex="1" parent="1KYJLx7tUCPM3I3dIadq-42">
          <mxGeometry width="30" height="30" as="geometry">
            <mxRectangle width="30" height="30" as="alternateBounds" />
          </mxGeometry>
        </mxCell>
        <mxCell id="1KYJLx7tUCPM3I3dIadq-44" value="points_total" style="shape=partialRectangle;connectable=0;fillColor=none;top=0;left=0;bottom=0;right=0;align=left;spacingLeft=6;overflow=hidden;whiteSpace=wrap;html=1;fontFamily=Arial;" vertex="1" parent="1KYJLx7tUCPM3I3dIadq-42">
          <mxGeometry x="30" width="150" height="30" as="geometry">
            <mxRectangle width="150" height="30" as="alternateBounds" />
          </mxGeometry>
        </mxCell>
        <mxCell id="1KYJLx7tUCPM3I3dIadq-199" style="shape=tableRow;horizontal=0;startSize=0;swimlaneHead=0;swimlaneBody=0;fillColor=none;collapsible=0;dropTarget=0;points=[[0,0.5],[1,0.5]];portConstraint=eastwest;top=0;left=0;right=0;bottom=0;" vertex="1" parent="1KYJLx7tUCPM3I3dIadq-32">
          <mxGeometry y="150" width="180" height="30" as="geometry" />
        </mxCell>
        <mxCell id="1KYJLx7tUCPM3I3dIadq-200" style="shape=partialRectangle;connectable=0;fillColor=none;top=0;left=0;bottom=0;right=0;editable=1;overflow=hidden;whiteSpace=wrap;html=1;fontFamily=Arial;" vertex="1" parent="1KYJLx7tUCPM3I3dIadq-199">
          <mxGeometry width="30" height="30" as="geometry">
            <mxRectangle width="30" height="30" as="alternateBounds" />
          </mxGeometry>
        </mxCell>
        <mxCell id="1KYJLx7tUCPM3I3dIadq-201" value="streak_count" style="shape=partialRectangle;connectable=0;fillColor=none;top=0;left=0;bottom=0;right=0;align=left;spacingLeft=6;overflow=hidden;whiteSpace=wrap;html=1;fontFamily=Arial;" vertex="1" parent="1KYJLx7tUCPM3I3dIadq-199">
          <mxGeometry x="30" width="150" height="30" as="geometry">
            <mxRectangle width="150" height="30" as="alternateBounds" />
          </mxGeometry>
        </mxCell>
        <mxCell id="1KYJLx7tUCPM3I3dIadq-205" style="shape=tableRow;horizontal=0;startSize=0;swimlaneHead=0;swimlaneBody=0;fillColor=none;collapsible=0;dropTarget=0;points=[[0,0.5],[1,0.5]];portConstraint=eastwest;top=0;left=0;right=0;bottom=0;" vertex="1" parent="1KYJLx7tUCPM3I3dIadq-32">
          <mxGeometry y="180" width="180" height="30" as="geometry" />
        </mxCell>
        <mxCell id="1KYJLx7tUCPM3I3dIadq-206" style="shape=partialRectangle;connectable=0;fillColor=none;top=0;left=0;bottom=0;right=0;editable=1;overflow=hidden;whiteSpace=wrap;html=1;fontFamily=Arial;" vertex="1" parent="1KYJLx7tUCPM3I3dIadq-205">
          <mxGeometry width="30" height="30" as="geometry">
            <mxRectangle width="30" height="30" as="alternateBounds" />
          </mxGeometry>
        </mxCell>
        <mxCell id="1KYJLx7tUCPM3I3dIadq-207" value="streaks_longest" style="shape=partialRectangle;connectable=0;fillColor=none;top=0;left=0;bottom=0;right=0;align=left;spacingLeft=6;overflow=hidden;whiteSpace=wrap;html=1;fontFamily=Arial;" vertex="1" parent="1KYJLx7tUCPM3I3dIadq-205">
          <mxGeometry x="30" width="150" height="30" as="geometry">
            <mxRectangle width="150" height="30" as="alternateBounds" />
          </mxGeometry>
        </mxCell>
        <mxCell id="1KYJLx7tUCPM3I3dIadq-202" style="shape=tableRow;horizontal=0;startSize=0;swimlaneHead=0;swimlaneBody=0;fillColor=none;collapsible=0;dropTarget=0;points=[[0,0.5],[1,0.5]];portConstraint=eastwest;top=0;left=0;right=0;bottom=0;" vertex="1" parent="1KYJLx7tUCPM3I3dIadq-32">
          <mxGeometry y="210" width="180" height="30" as="geometry" />
        </mxCell>
        <mxCell id="1KYJLx7tUCPM3I3dIadq-203" style="shape=partialRectangle;connectable=0;fillColor=none;top=0;left=0;bottom=0;right=0;editable=1;overflow=hidden;whiteSpace=wrap;html=1;fontFamily=Arial;" vertex="1" parent="1KYJLx7tUCPM3I3dIadq-202">
          <mxGeometry width="30" height="30" as="geometry">
            <mxRectangle width="30" height="30" as="alternateBounds" />
          </mxGeometry>
        </mxCell>
        <mxCell id="1KYJLx7tUCPM3I3dIadq-204" value="reward_updated" style="shape=partialRectangle;connectable=0;fillColor=none;top=0;left=0;bottom=0;right=0;align=left;spacingLeft=6;overflow=hidden;whiteSpace=wrap;html=1;fontFamily=Arial;" vertex="1" parent="1KYJLx7tUCPM3I3dIadq-202">
          <mxGeometry x="30" width="150" height="30" as="geometry">
            <mxRectangle width="150" height="30" as="alternateBounds" />
          </mxGeometry>
        </mxCell>
        <mxCell id="1KYJLx7tUCPM3I3dIadq-63" value="Badges" style="shape=table;startSize=30;container=1;collapsible=1;childLayout=tableLayout;fixedRows=1;rowLines=0;fontStyle=1;align=center;resizeLast=1;html=1;fillColor=#a20025;fontColor=#ffffff;strokeColor=#6F0000;fontFamily=Arial;" vertex="1" parent="1">
          <mxGeometry x="670" y="130" width="180" height="270" as="geometry" />
        </mxCell>
        <mxCell id="1KYJLx7tUCPM3I3dIadq-64" value="" style="shape=tableRow;horizontal=0;startSize=0;swimlaneHead=0;swimlaneBody=0;fillColor=none;collapsible=0;dropTarget=0;points=[[0,0.5],[1,0.5]];portConstraint=eastwest;top=0;left=0;right=0;bottom=1;" vertex="1" parent="1KYJLx7tUCPM3I3dIadq-63">
          <mxGeometry y="30" width="180" height="30" as="geometry" />
        </mxCell>
        <mxCell id="1KYJLx7tUCPM3I3dIadq-65" value="PK" style="shape=partialRectangle;connectable=0;fillColor=#e51400;top=0;left=0;bottom=0;right=0;fontStyle=1;overflow=hidden;whiteSpace=wrap;html=1;fontColor=#ffffff;strokeColor=inherit;fontFamily=Arial;" vertex="1" parent="1KYJLx7tUCPM3I3dIadq-64">
          <mxGeometry width="30" height="30" as="geometry">
            <mxRectangle width="30" height="30" as="alternateBounds" />
          </mxGeometry>
        </mxCell>
        <mxCell id="1KYJLx7tUCPM3I3dIadq-66" value="badge_id" style="shape=partialRectangle;connectable=0;fillColor=#e51400;top=0;left=0;bottom=0;right=0;align=left;spacingLeft=6;fontStyle=5;overflow=hidden;whiteSpace=wrap;html=1;fontColor=#ffffff;strokeColor=inherit;fontFamily=Arial;" vertex="1" parent="1KYJLx7tUCPM3I3dIadq-64">
          <mxGeometry x="30" width="150" height="30" as="geometry">
            <mxRectangle width="150" height="30" as="alternateBounds" />
          </mxGeometry>
        </mxCell>
        <mxCell id="1KYJLx7tUCPM3I3dIadq-82" style="shape=tableRow;horizontal=0;startSize=0;swimlaneHead=0;swimlaneBody=0;fillColor=none;collapsible=0;dropTarget=0;points=[[0,0.5],[1,0.5]];portConstraint=eastwest;top=0;left=0;right=0;bottom=1;" vertex="1" parent="1KYJLx7tUCPM3I3dIadq-63">
          <mxGeometry y="60" width="180" height="30" as="geometry" />
        </mxCell>
        <mxCell id="1KYJLx7tUCPM3I3dIadq-83" value="FK" style="shape=partialRectangle;connectable=0;fillColor=#e51400;top=0;left=0;bottom=0;right=0;fontStyle=1;overflow=hidden;whiteSpace=wrap;html=1;fontColor=#ffffff;strokeColor=default;fontFamily=Arial;" vertex="1" parent="1KYJLx7tUCPM3I3dIadq-82">
          <mxGeometry width="30" height="30" as="geometry">
            <mxRectangle width="30" height="30" as="alternateBounds" />
          </mxGeometry>
        </mxCell>
        <mxCell id="1KYJLx7tUCPM3I3dIadq-84" value="event_id" style="shape=partialRectangle;connectable=0;fillColor=#e51400;top=0;left=0;bottom=0;right=0;align=left;spacingLeft=6;fontStyle=5;overflow=hidden;whiteSpace=wrap;html=1;fontColor=#ffffff;strokeColor=default;fontFamily=Arial;" vertex="1" parent="1KYJLx7tUCPM3I3dIadq-82">
          <mxGeometry x="30" width="150" height="30" as="geometry">
            <mxRectangle width="150" height="30" as="alternateBounds" />
          </mxGeometry>
        </mxCell>
        <mxCell id="1KYJLx7tUCPM3I3dIadq-289" style="shape=tableRow;horizontal=0;startSize=0;swimlaneHead=0;swimlaneBody=0;fillColor=none;collapsible=0;dropTarget=0;points=[[0,0.5],[1,0.5]];portConstraint=eastwest;top=0;left=0;right=0;bottom=1;" vertex="1" parent="1KYJLx7tUCPM3I3dIadq-63">
          <mxGeometry y="90" width="180" height="30" as="geometry" />
        </mxCell>
        <mxCell id="1KYJLx7tUCPM3I3dIadq-290" style="shape=partialRectangle;connectable=0;fillColor=#e51400;top=0;left=0;bottom=0;right=0;fontStyle=1;overflow=hidden;whiteSpace=wrap;html=1;fontColor=#ffffff;strokeColor=default;fontFamily=Arial;" vertex="1" parent="1KYJLx7tUCPM3I3dIadq-289">
          <mxGeometry width="30" height="30" as="geometry">
            <mxRectangle width="30" height="30" as="alternateBounds" />
          </mxGeometry>
        </mxCell>
        <mxCell id="1KYJLx7tUCPM3I3dIadq-291" value="user_id" style="shape=partialRectangle;connectable=0;fillColor=#e51400;top=0;left=0;bottom=0;right=0;align=left;spacingLeft=6;fontStyle=5;overflow=hidden;whiteSpace=wrap;html=1;fontColor=#ffffff;strokeColor=default;fontFamily=Arial;" vertex="1" parent="1KYJLx7tUCPM3I3dIadq-289">
          <mxGeometry x="30" width="150" height="30" as="geometry">
            <mxRectangle width="150" height="30" as="alternateBounds" />
          </mxGeometry>
        </mxCell>
        <mxCell id="1KYJLx7tUCPM3I3dIadq-67" value="" style="shape=tableRow;horizontal=0;startSize=0;swimlaneHead=0;swimlaneBody=0;fillColor=none;collapsible=0;dropTarget=0;points=[[0,0.5],[1,0.5]];portConstraint=eastwest;top=0;left=0;right=0;bottom=0;" vertex="1" parent="1KYJLx7tUCPM3I3dIadq-63">
          <mxGeometry y="120" width="180" height="30" as="geometry" />
        </mxCell>
        <mxCell id="1KYJLx7tUCPM3I3dIadq-68" value="" style="shape=partialRectangle;connectable=0;fillColor=none;top=0;left=0;bottom=0;right=0;editable=1;overflow=hidden;whiteSpace=wrap;html=1;fontFamily=Arial;" vertex="1" parent="1KYJLx7tUCPM3I3dIadq-67">
          <mxGeometry width="30" height="30" as="geometry">
            <mxRectangle width="30" height="30" as="alternateBounds" />
          </mxGeometry>
        </mxCell>
        <mxCell id="1KYJLx7tUCPM3I3dIadq-69" value="badge_name" style="shape=partialRectangle;connectable=0;fillColor=none;top=0;left=0;bottom=0;right=0;align=left;spacingLeft=6;overflow=hidden;whiteSpace=wrap;html=1;fontFamily=Arial;" vertex="1" parent="1KYJLx7tUCPM3I3dIadq-67">
          <mxGeometry x="30" width="150" height="30" as="geometry">
            <mxRectangle width="150" height="30" as="alternateBounds" />
          </mxGeometry>
        </mxCell>
        <mxCell id="1KYJLx7tUCPM3I3dIadq-70" value="" style="shape=tableRow;horizontal=0;startSize=0;swimlaneHead=0;swimlaneBody=0;fillColor=none;collapsible=0;dropTarget=0;points=[[0,0.5],[1,0.5]];portConstraint=eastwest;top=0;left=0;right=0;bottom=0;" vertex="1" parent="1KYJLx7tUCPM3I3dIadq-63">
          <mxGeometry y="150" width="180" height="30" as="geometry" />
        </mxCell>
        <mxCell id="1KYJLx7tUCPM3I3dIadq-71" value="" style="shape=partialRectangle;connectable=0;fillColor=none;top=0;left=0;bottom=0;right=0;editable=1;overflow=hidden;whiteSpace=wrap;html=1;fontFamily=Arial;" vertex="1" parent="1KYJLx7tUCPM3I3dIadq-70">
          <mxGeometry width="30" height="30" as="geometry">
            <mxRectangle width="30" height="30" as="alternateBounds" />
          </mxGeometry>
        </mxCell>
        <mxCell id="1KYJLx7tUCPM3I3dIadq-72" value="icon_url" style="shape=partialRectangle;connectable=0;fillColor=none;top=0;left=0;bottom=0;right=0;align=left;spacingLeft=6;overflow=hidden;whiteSpace=wrap;html=1;fontFamily=Arial;" vertex="1" parent="1KYJLx7tUCPM3I3dIadq-70">
          <mxGeometry x="30" width="150" height="30" as="geometry">
            <mxRectangle width="150" height="30" as="alternateBounds" />
          </mxGeometry>
        </mxCell>
        <mxCell id="1KYJLx7tUCPM3I3dIadq-73" value="" style="shape=tableRow;horizontal=0;startSize=0;swimlaneHead=0;swimlaneBody=0;fillColor=none;collapsible=0;dropTarget=0;points=[[0,0.5],[1,0.5]];portConstraint=eastwest;top=0;left=0;right=0;bottom=0;" vertex="1" parent="1KYJLx7tUCPM3I3dIadq-63">
          <mxGeometry y="180" width="180" height="30" as="geometry" />
        </mxCell>
        <mxCell id="1KYJLx7tUCPM3I3dIadq-74" value="" style="shape=partialRectangle;connectable=0;fillColor=none;top=0;left=0;bottom=0;right=0;editable=1;overflow=hidden;whiteSpace=wrap;html=1;fontFamily=Arial;" vertex="1" parent="1KYJLx7tUCPM3I3dIadq-73">
          <mxGeometry width="30" height="30" as="geometry">
            <mxRectangle width="30" height="30" as="alternateBounds" />
          </mxGeometry>
        </mxCell>
        <mxCell id="1KYJLx7tUCPM3I3dIadq-75" value="criteria_type" style="shape=partialRectangle;connectable=0;fillColor=none;top=0;left=0;bottom=0;right=0;align=left;spacingLeft=6;overflow=hidden;whiteSpace=wrap;html=1;fontFamily=Arial;" vertex="1" parent="1KYJLx7tUCPM3I3dIadq-73">
          <mxGeometry x="30" width="150" height="30" as="geometry">
            <mxRectangle width="150" height="30" as="alternateBounds" />
          </mxGeometry>
        </mxCell>
        <mxCell id="1KYJLx7tUCPM3I3dIadq-76" style="shape=tableRow;horizontal=0;startSize=0;swimlaneHead=0;swimlaneBody=0;fillColor=none;collapsible=0;dropTarget=0;points=[[0,0.5],[1,0.5]];portConstraint=eastwest;top=0;left=0;right=0;bottom=0;" vertex="1" parent="1KYJLx7tUCPM3I3dIadq-63">
          <mxGeometry y="210" width="180" height="30" as="geometry" />
        </mxCell>
        <mxCell id="1KYJLx7tUCPM3I3dIadq-77" style="shape=partialRectangle;connectable=0;fillColor=none;top=0;left=0;bottom=0;right=0;editable=1;overflow=hidden;whiteSpace=wrap;html=1;fontFamily=Arial;" vertex="1" parent="1KYJLx7tUCPM3I3dIadq-76">
          <mxGeometry width="30" height="30" as="geometry">
            <mxRectangle width="30" height="30" as="alternateBounds" />
          </mxGeometry>
        </mxCell>
        <mxCell id="1KYJLx7tUCPM3I3dIadq-78" value="criteria_value" style="shape=partialRectangle;connectable=0;fillColor=none;top=0;left=0;bottom=0;right=0;align=left;spacingLeft=6;overflow=hidden;whiteSpace=wrap;html=1;fontFamily=Arial;" vertex="1" parent="1KYJLx7tUCPM3I3dIadq-76">
          <mxGeometry x="30" width="150" height="30" as="geometry">
            <mxRectangle width="150" height="30" as="alternateBounds" />
          </mxGeometry>
        </mxCell>
        <mxCell id="1KYJLx7tUCPM3I3dIadq-298" style="shape=tableRow;horizontal=0;startSize=0;swimlaneHead=0;swimlaneBody=0;fillColor=none;collapsible=0;dropTarget=0;points=[[0,0.5],[1,0.5]];portConstraint=eastwest;top=0;left=0;right=0;bottom=0;" vertex="1" parent="1KYJLx7tUCPM3I3dIadq-63">
          <mxGeometry y="240" width="180" height="30" as="geometry" />
        </mxCell>
        <mxCell id="1KYJLx7tUCPM3I3dIadq-299" style="shape=partialRectangle;connectable=0;fillColor=none;top=0;left=0;bottom=0;right=0;editable=1;overflow=hidden;whiteSpace=wrap;html=1;fontFamily=Arial;" vertex="1" parent="1KYJLx7tUCPM3I3dIadq-298">
          <mxGeometry width="30" height="30" as="geometry">
            <mxRectangle width="30" height="30" as="alternateBounds" />
          </mxGeometry>
        </mxCell>
        <mxCell id="1KYJLx7tUCPM3I3dIadq-300" value="awarded_date" style="shape=partialRectangle;connectable=0;fillColor=none;top=0;left=0;bottom=0;right=0;align=left;spacingLeft=6;overflow=hidden;whiteSpace=wrap;html=1;fontFamily=Arial;" vertex="1" parent="1KYJLx7tUCPM3I3dIadq-298">
          <mxGeometry x="30" width="150" height="30" as="geometry">
            <mxRectangle width="150" height="30" as="alternateBounds" />
          </mxGeometry>
        </mxCell>
        <mxCell id="1KYJLx7tUCPM3I3dIadq-85" value="user_rewards" style="shape=table;startSize=30;container=1;collapsible=1;childLayout=tableLayout;fixedRows=1;rowLines=0;fontStyle=1;align=center;resizeLast=1;html=1;fillColor=#a20025;fontColor=#ffffff;strokeColor=#6F0000;fontFamily=Arial;" vertex="1" parent="1">
          <mxGeometry x="50" y="750" width="180" height="210" as="geometry" />
        </mxCell>
        <mxCell id="1KYJLx7tUCPM3I3dIadq-86" value="" style="shape=tableRow;horizontal=0;startSize=0;swimlaneHead=0;swimlaneBody=0;fillColor=none;collapsible=0;dropTarget=0;points=[[0,0.5],[1,0.5]];portConstraint=eastwest;top=0;left=0;right=0;bottom=1;" vertex="1" parent="1KYJLx7tUCPM3I3dIadq-85">
          <mxGeometry y="30" width="180" height="30" as="geometry" />
        </mxCell>
        <mxCell id="1KYJLx7tUCPM3I3dIadq-87" value="PK" style="shape=partialRectangle;connectable=0;fillColor=#e51400;top=0;left=0;bottom=0;right=0;fontStyle=1;overflow=hidden;whiteSpace=wrap;html=1;fontColor=#ffffff;strokeColor=#B20000;fontFamily=Arial;" vertex="1" parent="1KYJLx7tUCPM3I3dIadq-86">
          <mxGeometry width="30" height="30" as="geometry">
            <mxRectangle width="30" height="30" as="alternateBounds" />
          </mxGeometry>
        </mxCell>
        <mxCell id="1KYJLx7tUCPM3I3dIadq-88" value="reward_log_id" style="shape=partialRectangle;connectable=0;fillColor=#e51400;top=0;left=0;bottom=0;right=0;align=left;spacingLeft=6;fontStyle=5;overflow=hidden;whiteSpace=wrap;html=1;fontColor=#ffffff;strokeColor=#B20000;fontFamily=Arial;" vertex="1" parent="1KYJLx7tUCPM3I3dIadq-86">
          <mxGeometry x="30" width="150" height="30" as="geometry">
            <mxRectangle width="150" height="30" as="alternateBounds" />
          </mxGeometry>
        </mxCell>
        <mxCell id="1KYJLx7tUCPM3I3dIadq-98" style="shape=tableRow;horizontal=0;startSize=0;swimlaneHead=0;swimlaneBody=0;fillColor=none;collapsible=0;dropTarget=0;points=[[0,0.5],[1,0.5]];portConstraint=eastwest;top=0;left=0;right=0;bottom=1;" vertex="1" parent="1KYJLx7tUCPM3I3dIadq-85">
          <mxGeometry y="60" width="180" height="30" as="geometry" />
        </mxCell>
        <mxCell id="1KYJLx7tUCPM3I3dIadq-99" value="FK" style="shape=partialRectangle;connectable=0;fillColor=#e51400;top=0;left=0;bottom=0;right=0;fontStyle=1;overflow=hidden;whiteSpace=wrap;html=1;fontColor=#ffffff;strokeColor=#B20000;fontFamily=Arial;" vertex="1" parent="1KYJLx7tUCPM3I3dIadq-98">
          <mxGeometry width="30" height="30" as="geometry">
            <mxRectangle width="30" height="30" as="alternateBounds" />
          </mxGeometry>
        </mxCell>
        <mxCell id="1KYJLx7tUCPM3I3dIadq-100" value="user_id" style="shape=partialRectangle;connectable=0;fillColor=#e51400;top=0;left=0;bottom=0;right=0;align=left;spacingLeft=6;fontStyle=5;overflow=hidden;whiteSpace=wrap;html=1;fontColor=#ffffff;strokeColor=#B20000;fontFamily=Arial;" vertex="1" parent="1KYJLx7tUCPM3I3dIadq-98">
          <mxGeometry x="30" width="150" height="30" as="geometry">
            <mxRectangle width="150" height="30" as="alternateBounds" />
          </mxGeometry>
        </mxCell>
        <mxCell id="1KYJLx7tUCPM3I3dIadq-89" value="" style="shape=tableRow;horizontal=0;startSize=0;swimlaneHead=0;swimlaneBody=0;fillColor=none;collapsible=0;dropTarget=0;points=[[0,0.5],[1,0.5]];portConstraint=eastwest;top=0;left=0;right=0;bottom=0;" vertex="1" parent="1KYJLx7tUCPM3I3dIadq-85">
          <mxGeometry y="90" width="180" height="30" as="geometry" />
        </mxCell>
        <mxCell id="1KYJLx7tUCPM3I3dIadq-90" value="" style="shape=partialRectangle;connectable=0;fillColor=none;top=0;left=0;bottom=0;right=0;editable=1;overflow=hidden;whiteSpace=wrap;html=1;fontFamily=Arial;" vertex="1" parent="1KYJLx7tUCPM3I3dIadq-89">
          <mxGeometry width="30" height="30" as="geometry">
            <mxRectangle width="30" height="30" as="alternateBounds" />
          </mxGeometry>
        </mxCell>
        <mxCell id="1KYJLx7tUCPM3I3dIadq-91" value="reward_id" style="shape=partialRectangle;connectable=0;fillColor=none;top=0;left=0;bottom=0;right=0;align=left;spacingLeft=6;overflow=hidden;whiteSpace=wrap;html=1;fontFamily=Arial;" vertex="1" parent="1KYJLx7tUCPM3I3dIadq-89">
          <mxGeometry x="30" width="150" height="30" as="geometry">
            <mxRectangle width="150" height="30" as="alternateBounds" />
          </mxGeometry>
        </mxCell>
        <mxCell id="1KYJLx7tUCPM3I3dIadq-92" value="" style="shape=tableRow;horizontal=0;startSize=0;swimlaneHead=0;swimlaneBody=0;fillColor=none;collapsible=0;dropTarget=0;points=[[0,0.5],[1,0.5]];portConstraint=eastwest;top=0;left=0;right=0;bottom=0;" vertex="1" parent="1KYJLx7tUCPM3I3dIadq-85">
          <mxGeometry y="120" width="180" height="30" as="geometry" />
        </mxCell>
        <mxCell id="1KYJLx7tUCPM3I3dIadq-93" value="Nu" style="shape=partialRectangle;connectable=0;fillColor=none;top=0;left=0;bottom=0;right=0;editable=1;overflow=hidden;whiteSpace=wrap;html=1;fontFamily=Arial;" vertex="1" parent="1KYJLx7tUCPM3I3dIadq-92">
          <mxGeometry width="30" height="30" as="geometry">
            <mxRectangle width="30" height="30" as="alternateBounds" />
          </mxGeometry>
        </mxCell>
        <mxCell id="1KYJLx7tUCPM3I3dIadq-94" value="reward_type" style="shape=partialRectangle;connectable=0;fillColor=none;top=0;left=0;bottom=0;right=0;align=left;spacingLeft=6;overflow=hidden;whiteSpace=wrap;html=1;fontFamily=Arial;" vertex="1" parent="1KYJLx7tUCPM3I3dIadq-92">
          <mxGeometry x="30" width="150" height="30" as="geometry">
            <mxRectangle width="150" height="30" as="alternateBounds" />
          </mxGeometry>
        </mxCell>
        <mxCell id="1KYJLx7tUCPM3I3dIadq-101" style="shape=tableRow;horizontal=0;startSize=0;swimlaneHead=0;swimlaneBody=0;fillColor=none;collapsible=0;dropTarget=0;points=[[0,0.5],[1,0.5]];portConstraint=eastwest;top=0;left=0;right=0;bottom=0;" vertex="1" parent="1KYJLx7tUCPM3I3dIadq-85">
          <mxGeometry y="150" width="180" height="30" as="geometry" />
        </mxCell>
        <mxCell id="1KYJLx7tUCPM3I3dIadq-102" value="Nu" style="shape=partialRectangle;connectable=0;fillColor=none;top=0;left=0;bottom=0;right=0;editable=1;overflow=hidden;whiteSpace=wrap;html=1;fontFamily=Arial;" vertex="1" parent="1KYJLx7tUCPM3I3dIadq-101">
          <mxGeometry width="30" height="30" as="geometry">
            <mxRectangle width="30" height="30" as="alternateBounds" />
          </mxGeometry>
        </mxCell>
        <mxCell id="1KYJLx7tUCPM3I3dIadq-103" value="points_earned" style="shape=partialRectangle;connectable=0;fillColor=none;top=0;left=0;bottom=0;right=0;align=left;spacingLeft=6;overflow=hidden;whiteSpace=wrap;html=1;fontFamily=Arial;" vertex="1" parent="1KYJLx7tUCPM3I3dIadq-101">
          <mxGeometry x="30" width="150" height="30" as="geometry">
            <mxRectangle width="150" height="30" as="alternateBounds" />
          </mxGeometry>
        </mxCell>
        <mxCell id="1KYJLx7tUCPM3I3dIadq-95" value="" style="shape=tableRow;horizontal=0;startSize=0;swimlaneHead=0;swimlaneBody=0;fillColor=none;collapsible=0;dropTarget=0;points=[[0,0.5],[1,0.5]];portConstraint=eastwest;top=0;left=0;right=0;bottom=0;" vertex="1" parent="1KYJLx7tUCPM3I3dIadq-85">
          <mxGeometry y="180" width="180" height="30" as="geometry" />
        </mxCell>
        <mxCell id="1KYJLx7tUCPM3I3dIadq-96" value="" style="shape=partialRectangle;connectable=0;fillColor=none;top=0;left=0;bottom=0;right=0;editable=1;overflow=hidden;whiteSpace=wrap;html=1;fontFamily=Arial;" vertex="1" parent="1KYJLx7tUCPM3I3dIadq-95">
          <mxGeometry width="30" height="30" as="geometry">
            <mxRectangle width="30" height="30" as="alternateBounds" />
          </mxGeometry>
        </mxCell>
        <mxCell id="1KYJLx7tUCPM3I3dIadq-97" value="awarded_time" style="shape=partialRectangle;connectable=0;fillColor=none;top=0;left=0;bottom=0;right=0;align=left;spacingLeft=6;overflow=hidden;whiteSpace=wrap;html=1;fontFamily=Arial;" vertex="1" parent="1KYJLx7tUCPM3I3dIadq-95">
          <mxGeometry x="30" width="150" height="30" as="geometry">
            <mxRectangle width="150" height="30" as="alternateBounds" />
          </mxGeometry>
        </mxCell>
        <mxCell id="1KYJLx7tUCPM3I3dIadq-104" value="Notification" style="shape=table;startSize=30;container=1;collapsible=1;childLayout=tableLayout;fixedRows=1;rowLines=0;fontStyle=1;align=center;resizeLast=1;html=1;fillColor=#a20025;fontColor=#ffffff;strokeColor=#6F0000;fontFamily=Arial;" vertex="1" parent="1">
          <mxGeometry x="1040" y="310" width="180" height="300" as="geometry" />
        </mxCell>
        <mxCell id="1KYJLx7tUCPM3I3dIadq-105" value="" style="shape=tableRow;horizontal=0;startSize=0;swimlaneHead=0;swimlaneBody=0;fillColor=none;collapsible=0;dropTarget=0;points=[[0,0.5],[1,0.5]];portConstraint=eastwest;top=0;left=0;right=0;bottom=1;" vertex="1" parent="1KYJLx7tUCPM3I3dIadq-104">
          <mxGeometry y="30" width="180" height="30" as="geometry" />
        </mxCell>
        <mxCell id="1KYJLx7tUCPM3I3dIadq-106" value="PK" style="shape=partialRectangle;connectable=0;fillColor=#e51400;top=0;left=0;bottom=0;right=0;fontStyle=1;overflow=hidden;whiteSpace=wrap;html=1;fontColor=#ffffff;strokeColor=#B20000;fontFamily=Arial;" vertex="1" parent="1KYJLx7tUCPM3I3dIadq-105">
          <mxGeometry width="30" height="30" as="geometry">
            <mxRectangle width="30" height="30" as="alternateBounds" />
          </mxGeometry>
        </mxCell>
        <mxCell id="1KYJLx7tUCPM3I3dIadq-107" value="notify_id" style="shape=partialRectangle;connectable=0;fillColor=#e51400;top=0;left=0;bottom=0;right=0;align=left;spacingLeft=6;fontStyle=5;overflow=hidden;whiteSpace=wrap;html=1;fontColor=#ffffff;strokeColor=#B20000;fontFamily=Arial;" vertex="1" parent="1KYJLx7tUCPM3I3dIadq-105">
          <mxGeometry x="30" width="150" height="30" as="geometry">
            <mxRectangle width="150" height="30" as="alternateBounds" />
          </mxGeometry>
        </mxCell>
        <mxCell id="1KYJLx7tUCPM3I3dIadq-149" style="shape=tableRow;horizontal=0;startSize=0;swimlaneHead=0;swimlaneBody=0;fillColor=none;collapsible=0;dropTarget=0;points=[[0,0.5],[1,0.5]];portConstraint=eastwest;top=0;left=0;right=0;bottom=1;" vertex="1" parent="1KYJLx7tUCPM3I3dIadq-104">
          <mxGeometry y="60" width="180" height="30" as="geometry" />
        </mxCell>
        <mxCell id="1KYJLx7tUCPM3I3dIadq-150" value="FK" style="shape=partialRectangle;connectable=0;fillColor=#e51400;top=0;left=0;bottom=0;right=0;fontStyle=1;overflow=hidden;whiteSpace=wrap;html=1;fontColor=#ffffff;strokeColor=#B20000;fontFamily=Arial;" vertex="1" parent="1KYJLx7tUCPM3I3dIadq-149">
          <mxGeometry width="30" height="30" as="geometry">
            <mxRectangle width="30" height="30" as="alternateBounds" />
          </mxGeometry>
        </mxCell>
        <mxCell id="1KYJLx7tUCPM3I3dIadq-151" value="user_id" style="shape=partialRectangle;connectable=0;fillColor=#e51400;top=0;left=0;bottom=0;right=0;align=left;spacingLeft=6;fontStyle=5;overflow=hidden;whiteSpace=wrap;html=1;fontColor=#ffffff;strokeColor=#B20000;fontFamily=Arial;" vertex="1" parent="1KYJLx7tUCPM3I3dIadq-149">
          <mxGeometry x="30" width="150" height="30" as="geometry">
            <mxRectangle width="150" height="30" as="alternateBounds" />
          </mxGeometry>
        </mxCell>
        <mxCell id="1KYJLx7tUCPM3I3dIadq-242" style="shape=tableRow;horizontal=0;startSize=0;swimlaneHead=0;swimlaneBody=0;fillColor=none;collapsible=0;dropTarget=0;points=[[0,0.5],[1,0.5]];portConstraint=eastwest;top=0;left=0;right=0;bottom=1;" vertex="1" parent="1KYJLx7tUCPM3I3dIadq-104">
          <mxGeometry y="90" width="180" height="30" as="geometry" />
        </mxCell>
        <mxCell id="1KYJLx7tUCPM3I3dIadq-243" value="Null&lt;br&gt;FK" style="shape=partialRectangle;connectable=0;fillColor=#e51400;top=0;left=0;bottom=0;right=0;fontStyle=1;overflow=hidden;whiteSpace=wrap;html=1;fontColor=#ffffff;strokeColor=#B20000;fontFamily=Arial;" vertex="1" parent="1KYJLx7tUCPM3I3dIadq-242">
          <mxGeometry width="30" height="30" as="geometry">
            <mxRectangle width="30" height="30" as="alternateBounds" />
          </mxGeometry>
        </mxCell>
        <mxCell id="1KYJLx7tUCPM3I3dIadq-244" value="badge_id" style="shape=partialRectangle;connectable=0;fillColor=#e51400;top=0;left=0;bottom=0;right=0;align=left;spacingLeft=6;fontStyle=5;overflow=hidden;whiteSpace=wrap;html=1;fontColor=#ffffff;strokeColor=#B20000;fontFamily=Arial;" vertex="1" parent="1KYJLx7tUCPM3I3dIadq-242">
          <mxGeometry x="30" width="150" height="30" as="geometry">
            <mxRectangle width="150" height="30" as="alternateBounds" />
          </mxGeometry>
        </mxCell>
        <mxCell id="1KYJLx7tUCPM3I3dIadq-239" style="shape=tableRow;horizontal=0;startSize=0;swimlaneHead=0;swimlaneBody=0;fillColor=none;collapsible=0;dropTarget=0;points=[[0,0.5],[1,0.5]];portConstraint=eastwest;top=0;left=0;right=0;bottom=1;" vertex="1" parent="1KYJLx7tUCPM3I3dIadq-104">
          <mxGeometry y="120" width="180" height="30" as="geometry" />
        </mxCell>
        <mxCell id="1KYJLx7tUCPM3I3dIadq-240" value="Null&lt;br&gt;FK" style="shape=partialRectangle;connectable=0;fillColor=#e51400;top=0;left=0;bottom=0;right=0;fontStyle=1;overflow=hidden;whiteSpace=wrap;html=1;fontColor=#ffffff;strokeColor=#B20000;fontFamily=Arial;" vertex="1" parent="1KYJLx7tUCPM3I3dIadq-239">
          <mxGeometry width="30" height="30" as="geometry">
            <mxRectangle width="30" height="30" as="alternateBounds" />
          </mxGeometry>
        </mxCell>
        <mxCell id="1KYJLx7tUCPM3I3dIadq-241" value="streak_id" style="shape=partialRectangle;connectable=0;fillColor=#e51400;top=0;left=0;bottom=0;right=0;align=left;spacingLeft=6;fontStyle=5;overflow=hidden;whiteSpace=wrap;html=1;fontColor=#ffffff;strokeColor=#B20000;fontFamily=Arial;" vertex="1" parent="1KYJLx7tUCPM3I3dIadq-239">
          <mxGeometry x="30" width="150" height="30" as="geometry">
            <mxRectangle width="150" height="30" as="alternateBounds" />
          </mxGeometry>
        </mxCell>
        <mxCell id="1KYJLx7tUCPM3I3dIadq-236" style="shape=tableRow;horizontal=0;startSize=0;swimlaneHead=0;swimlaneBody=0;fillColor=none;collapsible=0;dropTarget=0;points=[[0,0.5],[1,0.5]];portConstraint=eastwest;top=0;left=0;right=0;bottom=1;" vertex="1" parent="1KYJLx7tUCPM3I3dIadq-104">
          <mxGeometry y="150" width="180" height="30" as="geometry" />
        </mxCell>
        <mxCell id="1KYJLx7tUCPM3I3dIadq-237" value="Null FK" style="shape=partialRectangle;connectable=0;fillColor=#e51400;top=0;left=0;bottom=0;right=0;fontStyle=1;overflow=hidden;whiteSpace=wrap;html=1;fontColor=#ffffff;strokeColor=#B20000;fontFamily=Arial;" vertex="1" parent="1KYJLx7tUCPM3I3dIadq-236">
          <mxGeometry width="30" height="30" as="geometry">
            <mxRectangle width="30" height="30" as="alternateBounds" />
          </mxGeometry>
        </mxCell>
        <mxCell id="1KYJLx7tUCPM3I3dIadq-238" value="point_id" style="shape=partialRectangle;connectable=0;fillColor=#e51400;top=0;left=0;bottom=0;right=0;align=left;spacingLeft=6;fontStyle=5;overflow=hidden;whiteSpace=wrap;html=1;fontColor=#ffffff;strokeColor=#B20000;fontFamily=Arial;" vertex="1" parent="1KYJLx7tUCPM3I3dIadq-236">
          <mxGeometry x="30" width="150" height="30" as="geometry">
            <mxRectangle width="150" height="30" as="alternateBounds" />
          </mxGeometry>
        </mxCell>
        <mxCell id="1KYJLx7tUCPM3I3dIadq-108" value="" style="shape=tableRow;horizontal=0;startSize=0;swimlaneHead=0;swimlaneBody=0;fillColor=none;collapsible=0;dropTarget=0;points=[[0,0.5],[1,0.5]];portConstraint=eastwest;top=0;left=0;right=0;bottom=0;" vertex="1" parent="1KYJLx7tUCPM3I3dIadq-104">
          <mxGeometry y="180" width="180" height="30" as="geometry" />
        </mxCell>
        <mxCell id="1KYJLx7tUCPM3I3dIadq-109" value="" style="shape=partialRectangle;connectable=0;fillColor=none;top=0;left=0;bottom=0;right=0;editable=1;overflow=hidden;whiteSpace=wrap;html=1;fontFamily=Arial;" vertex="1" parent="1KYJLx7tUCPM3I3dIadq-108">
          <mxGeometry width="30" height="30" as="geometry">
            <mxRectangle width="30" height="30" as="alternateBounds" />
          </mxGeometry>
        </mxCell>
        <mxCell id="1KYJLx7tUCPM3I3dIadq-110" value="notify_type" style="shape=partialRectangle;connectable=0;fillColor=none;top=0;left=0;bottom=0;right=0;align=left;spacingLeft=6;overflow=hidden;whiteSpace=wrap;html=1;fontFamily=Arial;" vertex="1" parent="1KYJLx7tUCPM3I3dIadq-108">
          <mxGeometry x="30" width="150" height="30" as="geometry">
            <mxRectangle width="150" height="30" as="alternateBounds" />
          </mxGeometry>
        </mxCell>
        <mxCell id="1KYJLx7tUCPM3I3dIadq-111" value="" style="shape=tableRow;horizontal=0;startSize=0;swimlaneHead=0;swimlaneBody=0;fillColor=none;collapsible=0;dropTarget=0;points=[[0,0.5],[1,0.5]];portConstraint=eastwest;top=0;left=0;right=0;bottom=0;" vertex="1" parent="1KYJLx7tUCPM3I3dIadq-104">
          <mxGeometry y="210" width="180" height="30" as="geometry" />
        </mxCell>
        <mxCell id="1KYJLx7tUCPM3I3dIadq-112" value="" style="shape=partialRectangle;connectable=0;fillColor=none;top=0;left=0;bottom=0;right=0;editable=1;overflow=hidden;whiteSpace=wrap;html=1;fontFamily=Arial;" vertex="1" parent="1KYJLx7tUCPM3I3dIadq-111">
          <mxGeometry width="30" height="30" as="geometry">
            <mxRectangle width="30" height="30" as="alternateBounds" />
          </mxGeometry>
        </mxCell>
        <mxCell id="1KYJLx7tUCPM3I3dIadq-113" value="reward_type" style="shape=partialRectangle;connectable=0;fillColor=none;top=0;left=0;bottom=0;right=0;align=left;spacingLeft=6;overflow=hidden;whiteSpace=wrap;html=1;fontFamily=Arial;" vertex="1" parent="1KYJLx7tUCPM3I3dIadq-111">
          <mxGeometry x="30" width="150" height="30" as="geometry">
            <mxRectangle width="150" height="30" as="alternateBounds" />
          </mxGeometry>
        </mxCell>
        <mxCell id="1KYJLx7tUCPM3I3dIadq-114" value="" style="shape=tableRow;horizontal=0;startSize=0;swimlaneHead=0;swimlaneBody=0;fillColor=none;collapsible=0;dropTarget=0;points=[[0,0.5],[1,0.5]];portConstraint=eastwest;top=0;left=0;right=0;bottom=0;" vertex="1" parent="1KYJLx7tUCPM3I3dIadq-104">
          <mxGeometry y="240" width="180" height="30" as="geometry" />
        </mxCell>
        <mxCell id="1KYJLx7tUCPM3I3dIadq-115" value="" style="shape=partialRectangle;connectable=0;fillColor=none;top=0;left=0;bottom=0;right=0;editable=1;overflow=hidden;whiteSpace=wrap;html=1;fontFamily=Arial;" vertex="1" parent="1KYJLx7tUCPM3I3dIadq-114">
          <mxGeometry width="30" height="30" as="geometry">
            <mxRectangle width="30" height="30" as="alternateBounds" />
          </mxGeometry>
        </mxCell>
        <mxCell id="1KYJLx7tUCPM3I3dIadq-116" value="notify_text" style="shape=partialRectangle;connectable=0;fillColor=none;top=0;left=0;bottom=0;right=0;align=left;spacingLeft=6;overflow=hidden;whiteSpace=wrap;html=1;fontFamily=Arial;" vertex="1" parent="1KYJLx7tUCPM3I3dIadq-114">
          <mxGeometry x="30" width="150" height="30" as="geometry">
            <mxRectangle width="150" height="30" as="alternateBounds" />
          </mxGeometry>
        </mxCell>
        <mxCell id="1KYJLx7tUCPM3I3dIadq-152" style="shape=tableRow;horizontal=0;startSize=0;swimlaneHead=0;swimlaneBody=0;fillColor=none;collapsible=0;dropTarget=0;points=[[0,0.5],[1,0.5]];portConstraint=eastwest;top=0;left=0;right=0;bottom=0;" vertex="1" parent="1KYJLx7tUCPM3I3dIadq-104">
          <mxGeometry y="270" width="180" height="30" as="geometry" />
        </mxCell>
        <mxCell id="1KYJLx7tUCPM3I3dIadq-153" style="shape=partialRectangle;connectable=0;fillColor=none;top=0;left=0;bottom=0;right=0;editable=1;overflow=hidden;whiteSpace=wrap;html=1;fontFamily=Arial;" vertex="1" parent="1KYJLx7tUCPM3I3dIadq-152">
          <mxGeometry width="30" height="30" as="geometry">
            <mxRectangle width="30" height="30" as="alternateBounds" />
          </mxGeometry>
        </mxCell>
        <mxCell id="1KYJLx7tUCPM3I3dIadq-154" value="notify_date" style="shape=partialRectangle;connectable=0;fillColor=none;top=0;left=0;bottom=0;right=0;align=left;spacingLeft=6;overflow=hidden;whiteSpace=wrap;html=1;fontFamily=Arial;" vertex="1" parent="1KYJLx7tUCPM3I3dIadq-152">
          <mxGeometry x="30" width="150" height="30" as="geometry">
            <mxRectangle width="150" height="30" as="alternateBounds" />
          </mxGeometry>
        </mxCell>
        <mxCell id="1KYJLx7tUCPM3I3dIadq-117" value="Streaks" style="shape=table;startSize=30;container=1;collapsible=1;childLayout=tableLayout;fixedRows=1;rowLines=0;fontStyle=1;align=center;resizeLast=1;html=1;fillColor=#a20025;fontColor=#ffffff;strokeColor=#6F0000;fontFamily=Arial;" vertex="1" parent="1">
          <mxGeometry x="660" y="450" width="180" height="270" as="geometry" />
        </mxCell>
        <mxCell id="1KYJLx7tUCPM3I3dIadq-118" value="" style="shape=tableRow;horizontal=0;startSize=0;swimlaneHead=0;swimlaneBody=0;fillColor=none;collapsible=0;dropTarget=0;points=[[0,0.5],[1,0.5]];portConstraint=eastwest;top=0;left=0;right=0;bottom=1;" vertex="1" parent="1KYJLx7tUCPM3I3dIadq-117">
          <mxGeometry y="30" width="180" height="30" as="geometry" />
        </mxCell>
        <mxCell id="1KYJLx7tUCPM3I3dIadq-119" value="PK" style="shape=partialRectangle;connectable=0;fillColor=#e51400;top=0;left=0;bottom=0;right=0;fontStyle=1;overflow=hidden;whiteSpace=wrap;html=1;fontColor=#ffffff;strokeColor=#B20000;fontFamily=Arial;" vertex="1" parent="1KYJLx7tUCPM3I3dIadq-118">
          <mxGeometry width="30" height="30" as="geometry">
            <mxRectangle width="30" height="30" as="alternateBounds" />
          </mxGeometry>
        </mxCell>
        <mxCell id="1KYJLx7tUCPM3I3dIadq-120" value="streak_id" style="shape=partialRectangle;connectable=0;fillColor=#e51400;top=0;left=0;bottom=0;right=0;align=left;spacingLeft=6;fontStyle=5;overflow=hidden;whiteSpace=wrap;html=1;fontColor=#ffffff;strokeColor=#B20000;fontFamily=Arial;" vertex="1" parent="1KYJLx7tUCPM3I3dIadq-118">
          <mxGeometry x="30" width="150" height="30" as="geometry">
            <mxRectangle width="150" height="30" as="alternateBounds" />
          </mxGeometry>
        </mxCell>
        <mxCell id="1KYJLx7tUCPM3I3dIadq-130" style="shape=tableRow;horizontal=0;startSize=0;swimlaneHead=0;swimlaneBody=0;fillColor=none;collapsible=0;dropTarget=0;points=[[0,0.5],[1,0.5]];portConstraint=eastwest;top=0;left=0;right=0;bottom=1;" vertex="1" parent="1KYJLx7tUCPM3I3dIadq-117">
          <mxGeometry y="60" width="180" height="30" as="geometry" />
        </mxCell>
        <mxCell id="1KYJLx7tUCPM3I3dIadq-131" value="FK" style="shape=partialRectangle;connectable=0;fillColor=#e51400;top=0;left=0;bottom=0;right=0;fontStyle=1;overflow=hidden;whiteSpace=wrap;html=1;fontColor=#ffffff;strokeColor=#B20000;fontFamily=Arial;" vertex="1" parent="1KYJLx7tUCPM3I3dIadq-130">
          <mxGeometry width="30" height="30" as="geometry">
            <mxRectangle width="30" height="30" as="alternateBounds" />
          </mxGeometry>
        </mxCell>
        <mxCell id="1KYJLx7tUCPM3I3dIadq-132" value="event_id" style="shape=partialRectangle;connectable=0;fillColor=#e51400;top=0;left=0;bottom=0;right=0;align=left;spacingLeft=6;fontStyle=5;overflow=hidden;whiteSpace=wrap;html=1;fontColor=#ffffff;strokeColor=#B20000;fontFamily=Arial;" vertex="1" parent="1KYJLx7tUCPM3I3dIadq-130">
          <mxGeometry x="30" width="150" height="30" as="geometry">
            <mxRectangle width="150" height="30" as="alternateBounds" />
          </mxGeometry>
        </mxCell>
        <mxCell id="1KYJLx7tUCPM3I3dIadq-292" style="shape=tableRow;horizontal=0;startSize=0;swimlaneHead=0;swimlaneBody=0;fillColor=none;collapsible=0;dropTarget=0;points=[[0,0.5],[1,0.5]];portConstraint=eastwest;top=0;left=0;right=0;bottom=1;" vertex="1" parent="1KYJLx7tUCPM3I3dIadq-117">
          <mxGeometry y="90" width="180" height="30" as="geometry" />
        </mxCell>
        <mxCell id="1KYJLx7tUCPM3I3dIadq-293" value="FK" style="shape=partialRectangle;connectable=0;fillColor=#e51400;top=0;left=0;bottom=0;right=0;fontStyle=1;overflow=hidden;whiteSpace=wrap;html=1;fontColor=#ffffff;strokeColor=#B20000;fontFamily=Arial;" vertex="1" parent="1KYJLx7tUCPM3I3dIadq-292">
          <mxGeometry width="30" height="30" as="geometry">
            <mxRectangle width="30" height="30" as="alternateBounds" />
          </mxGeometry>
        </mxCell>
        <mxCell id="1KYJLx7tUCPM3I3dIadq-294" value="user_id" style="shape=partialRectangle;connectable=0;fillColor=#e51400;top=0;left=0;bottom=0;right=0;align=left;spacingLeft=6;fontStyle=5;overflow=hidden;whiteSpace=wrap;html=1;fontColor=#ffffff;strokeColor=#B20000;fontFamily=Arial;" vertex="1" parent="1KYJLx7tUCPM3I3dIadq-292">
          <mxGeometry x="30" width="150" height="30" as="geometry">
            <mxRectangle width="150" height="30" as="alternateBounds" />
          </mxGeometry>
        </mxCell>
        <mxCell id="1KYJLx7tUCPM3I3dIadq-121" value="" style="shape=tableRow;horizontal=0;startSize=0;swimlaneHead=0;swimlaneBody=0;fillColor=none;collapsible=0;dropTarget=0;points=[[0,0.5],[1,0.5]];portConstraint=eastwest;top=0;left=0;right=0;bottom=0;" vertex="1" parent="1KYJLx7tUCPM3I3dIadq-117">
          <mxGeometry y="120" width="180" height="30" as="geometry" />
        </mxCell>
        <mxCell id="1KYJLx7tUCPM3I3dIadq-122" value="" style="shape=partialRectangle;connectable=0;fillColor=none;top=0;left=0;bottom=0;right=0;editable=1;overflow=hidden;whiteSpace=wrap;html=1;fontFamily=Arial;" vertex="1" parent="1KYJLx7tUCPM3I3dIadq-121">
          <mxGeometry width="30" height="30" as="geometry">
            <mxRectangle width="30" height="30" as="alternateBounds" />
          </mxGeometry>
        </mxCell>
        <mxCell id="1KYJLx7tUCPM3I3dIadq-123" value="streak_name" style="shape=partialRectangle;connectable=0;fillColor=none;top=0;left=0;bottom=0;right=0;align=left;spacingLeft=6;overflow=hidden;whiteSpace=wrap;html=1;fontFamily=Arial;" vertex="1" parent="1KYJLx7tUCPM3I3dIadq-121">
          <mxGeometry x="30" width="150" height="30" as="geometry">
            <mxRectangle width="150" height="30" as="alternateBounds" />
          </mxGeometry>
        </mxCell>
        <mxCell id="1KYJLx7tUCPM3I3dIadq-124" value="" style="shape=tableRow;horizontal=0;startSize=0;swimlaneHead=0;swimlaneBody=0;fillColor=none;collapsible=0;dropTarget=0;points=[[0,0.5],[1,0.5]];portConstraint=eastwest;top=0;left=0;right=0;bottom=0;" vertex="1" parent="1KYJLx7tUCPM3I3dIadq-117">
          <mxGeometry y="150" width="180" height="30" as="geometry" />
        </mxCell>
        <mxCell id="1KYJLx7tUCPM3I3dIadq-125" value="" style="shape=partialRectangle;connectable=0;fillColor=none;top=0;left=0;bottom=0;right=0;editable=1;overflow=hidden;whiteSpace=wrap;html=1;fontFamily=Arial;" vertex="1" parent="1KYJLx7tUCPM3I3dIadq-124">
          <mxGeometry width="30" height="30" as="geometry">
            <mxRectangle width="30" height="30" as="alternateBounds" />
          </mxGeometry>
        </mxCell>
        <mxCell id="1KYJLx7tUCPM3I3dIadq-126" value="icon_url" style="shape=partialRectangle;connectable=0;fillColor=none;top=0;left=0;bottom=0;right=0;align=left;spacingLeft=6;overflow=hidden;whiteSpace=wrap;html=1;fontFamily=Arial;" vertex="1" parent="1KYJLx7tUCPM3I3dIadq-124">
          <mxGeometry x="30" width="150" height="30" as="geometry">
            <mxRectangle width="150" height="30" as="alternateBounds" />
          </mxGeometry>
        </mxCell>
        <mxCell id="1KYJLx7tUCPM3I3dIadq-146" style="shape=tableRow;horizontal=0;startSize=0;swimlaneHead=0;swimlaneBody=0;fillColor=none;collapsible=0;dropTarget=0;points=[[0,0.5],[1,0.5]];portConstraint=eastwest;top=0;left=0;right=0;bottom=0;" vertex="1" parent="1KYJLx7tUCPM3I3dIadq-117">
          <mxGeometry y="180" width="180" height="30" as="geometry" />
        </mxCell>
        <mxCell id="1KYJLx7tUCPM3I3dIadq-147" style="shape=partialRectangle;connectable=0;fillColor=none;top=0;left=0;bottom=0;right=0;editable=1;overflow=hidden;whiteSpace=wrap;html=1;fontFamily=Arial;" vertex="1" parent="1KYJLx7tUCPM3I3dIadq-146">
          <mxGeometry width="30" height="30" as="geometry">
            <mxRectangle width="30" height="30" as="alternateBounds" />
          </mxGeometry>
        </mxCell>
        <mxCell id="1KYJLx7tUCPM3I3dIadq-148" value="streak_type" style="shape=partialRectangle;connectable=0;fillColor=none;top=0;left=0;bottom=0;right=0;align=left;spacingLeft=6;overflow=hidden;whiteSpace=wrap;html=1;fontFamily=Arial;" vertex="1" parent="1KYJLx7tUCPM3I3dIadq-146">
          <mxGeometry x="30" width="150" height="30" as="geometry">
            <mxRectangle width="150" height="30" as="alternateBounds" />
          </mxGeometry>
        </mxCell>
        <mxCell id="1KYJLx7tUCPM3I3dIadq-301" style="shape=tableRow;horizontal=0;startSize=0;swimlaneHead=0;swimlaneBody=0;fillColor=none;collapsible=0;dropTarget=0;points=[[0,0.5],[1,0.5]];portConstraint=eastwest;top=0;left=0;right=0;bottom=0;" vertex="1" parent="1KYJLx7tUCPM3I3dIadq-117">
          <mxGeometry y="210" width="180" height="30" as="geometry" />
        </mxCell>
        <mxCell id="1KYJLx7tUCPM3I3dIadq-302" style="shape=partialRectangle;connectable=0;fillColor=none;top=0;left=0;bottom=0;right=0;editable=1;overflow=hidden;whiteSpace=wrap;html=1;fontFamily=Arial;" vertex="1" parent="1KYJLx7tUCPM3I3dIadq-301">
          <mxGeometry width="30" height="30" as="geometry">
            <mxRectangle width="30" height="30" as="alternateBounds" />
          </mxGeometry>
        </mxCell>
        <mxCell id="1KYJLx7tUCPM3I3dIadq-303" value="streak_start" style="shape=partialRectangle;connectable=0;fillColor=none;top=0;left=0;bottom=0;right=0;align=left;spacingLeft=6;overflow=hidden;whiteSpace=wrap;html=1;fontFamily=Arial;" vertex="1" parent="1KYJLx7tUCPM3I3dIadq-301">
          <mxGeometry x="30" width="150" height="30" as="geometry">
            <mxRectangle width="150" height="30" as="alternateBounds" />
          </mxGeometry>
        </mxCell>
        <mxCell id="1KYJLx7tUCPM3I3dIadq-304" style="shape=tableRow;horizontal=0;startSize=0;swimlaneHead=0;swimlaneBody=0;fillColor=none;collapsible=0;dropTarget=0;points=[[0,0.5],[1,0.5]];portConstraint=eastwest;top=0;left=0;right=0;bottom=0;" vertex="1" parent="1KYJLx7tUCPM3I3dIadq-117">
          <mxGeometry y="240" width="180" height="30" as="geometry" />
        </mxCell>
        <mxCell id="1KYJLx7tUCPM3I3dIadq-305" value="Nu" style="shape=partialRectangle;connectable=0;fillColor=none;top=0;left=0;bottom=0;right=0;editable=1;overflow=hidden;whiteSpace=wrap;html=1;fontFamily=Arial;" vertex="1" parent="1KYJLx7tUCPM3I3dIadq-304">
          <mxGeometry width="30" height="30" as="geometry">
            <mxRectangle width="30" height="30" as="alternateBounds" />
          </mxGeometry>
        </mxCell>
        <mxCell id="1KYJLx7tUCPM3I3dIadq-306" value="streak_end" style="shape=partialRectangle;connectable=0;fillColor=none;top=0;left=0;bottom=0;right=0;align=left;spacingLeft=6;overflow=hidden;whiteSpace=wrap;html=1;fontFamily=Arial;" vertex="1" parent="1KYJLx7tUCPM3I3dIadq-304">
          <mxGeometry x="30" width="150" height="30" as="geometry">
            <mxRectangle width="150" height="30" as="alternateBounds" />
          </mxGeometry>
        </mxCell>
        <mxCell id="1KYJLx7tUCPM3I3dIadq-273" style="edgeStyle=orthogonalEdgeStyle;rounded=0;orthogonalLoop=1;jettySize=auto;html=1;exitX=1;exitY=0.3;exitDx=0;exitDy=0;exitPerimeter=0;entryX=0;entryY=0.5;entryDx=0;entryDy=0;endArrow=none;endFill=0;" edge="1" parent="1" source="1KYJLx7tUCPM3I3dIadq-208" target="1KYJLx7tUCPM3I3dIadq-231">
          <mxGeometry relative="1" as="geometry" />
        </mxCell>
        <mxCell id="1KYJLx7tUCPM3I3dIadq-208" value="Events" style="shape=table;startSize=30;container=1;collapsible=1;childLayout=tableLayout;fixedRows=1;rowLines=0;fontStyle=1;align=center;resizeLast=1;html=1;fillColor=#a20025;fontColor=#ffffff;strokeColor=#6F0000;fontFamily=Arial;points=[[0,0,0,0,0],[0,0.25,0,0,0],[0,0.5,0,0,0],[0,0.75,0,0,0],[0,1,0,0,0],[0.25,0,0,0,0],[0.25,1,0,0,0],[0.5,0,0,0,0],[0.5,1,0,0,0],[0.75,0,0,0,0],[0.75,1,0,0,0],[1,0,0,0,0],[1,0.2,0,0,0],[1,0.25,0,0,0],[1,0.3,0,0,0],[1,0.5,0,0,0],[1,0.75,0,0,0],[1,1,0,0,0]];" vertex="1" parent="1">
          <mxGeometry x="340" y="470" width="180" height="180" as="geometry" />
        </mxCell>
        <mxCell id="1KYJLx7tUCPM3I3dIadq-209" value="" style="shape=tableRow;horizontal=0;startSize=0;swimlaneHead=0;swimlaneBody=0;fillColor=none;collapsible=0;dropTarget=0;points=[[0,0.5],[1,0.5]];portConstraint=eastwest;top=0;left=0;right=0;bottom=1;" vertex="1" parent="1KYJLx7tUCPM3I3dIadq-208">
          <mxGeometry y="30" width="180" height="30" as="geometry" />
        </mxCell>
        <mxCell id="1KYJLx7tUCPM3I3dIadq-210" value="PK" style="shape=partialRectangle;connectable=0;fillColor=#e51400;top=0;left=0;bottom=0;right=0;fontStyle=1;overflow=hidden;whiteSpace=wrap;html=1;fontColor=#ffffff;strokeColor=inherit;fontFamily=Arial;" vertex="1" parent="1KYJLx7tUCPM3I3dIadq-209">
          <mxGeometry width="30" height="30" as="geometry">
            <mxRectangle width="30" height="30" as="alternateBounds" />
          </mxGeometry>
        </mxCell>
        <mxCell id="1KYJLx7tUCPM3I3dIadq-211" value="event_id" style="shape=partialRectangle;connectable=0;fillColor=#e51400;top=0;left=0;bottom=0;right=0;align=left;spacingLeft=6;fontStyle=5;overflow=hidden;whiteSpace=wrap;html=1;fontColor=#ffffff;strokeColor=inherit;fontFamily=Arial;" vertex="1" parent="1KYJLx7tUCPM3I3dIadq-209">
          <mxGeometry x="30" width="150" height="30" as="geometry">
            <mxRectangle width="150" height="30" as="alternateBounds" />
          </mxGeometry>
        </mxCell>
        <mxCell id="1KYJLx7tUCPM3I3dIadq-254" style="shape=tableRow;horizontal=0;startSize=0;swimlaneHead=0;swimlaneBody=0;fillColor=none;collapsible=0;dropTarget=0;points=[[0,0.5],[1,0.5]];portConstraint=eastwest;top=0;left=0;right=0;bottom=1;" vertex="1" parent="1KYJLx7tUCPM3I3dIadq-208">
          <mxGeometry y="60" width="180" height="30" as="geometry" />
        </mxCell>
        <mxCell id="1KYJLx7tUCPM3I3dIadq-255" value="FK" style="shape=partialRectangle;connectable=0;fillColor=#e51400;top=0;left=0;bottom=0;right=0;fontStyle=1;overflow=hidden;whiteSpace=wrap;html=1;fontColor=#ffffff;strokeColor=inherit;fontFamily=Arial;" vertex="1" parent="1KYJLx7tUCPM3I3dIadq-254">
          <mxGeometry width="30" height="30" as="geometry">
            <mxRectangle width="30" height="30" as="alternateBounds" />
          </mxGeometry>
        </mxCell>
        <mxCell id="1KYJLx7tUCPM3I3dIadq-256" value="user_id" style="shape=partialRectangle;connectable=0;fillColor=#e51400;top=0;left=0;bottom=0;right=0;align=left;spacingLeft=6;fontStyle=5;overflow=hidden;whiteSpace=wrap;html=1;fontColor=#ffffff;strokeColor=inherit;fontFamily=Arial;" vertex="1" parent="1KYJLx7tUCPM3I3dIadq-254">
          <mxGeometry x="30" width="150" height="30" as="geometry">
            <mxRectangle width="150" height="30" as="alternateBounds" />
          </mxGeometry>
        </mxCell>
        <mxCell id="1KYJLx7tUCPM3I3dIadq-215" value="" style="shape=tableRow;horizontal=0;startSize=0;swimlaneHead=0;swimlaneBody=0;fillColor=none;collapsible=0;dropTarget=0;points=[[0,0.5],[1,0.5]];portConstraint=eastwest;top=0;left=0;right=0;bottom=0;" vertex="1" parent="1KYJLx7tUCPM3I3dIadq-208">
          <mxGeometry y="90" width="180" height="30" as="geometry" />
        </mxCell>
        <mxCell id="1KYJLx7tUCPM3I3dIadq-216" value="" style="shape=partialRectangle;connectable=0;fillColor=none;top=0;left=0;bottom=0;right=0;editable=1;overflow=hidden;whiteSpace=wrap;html=1;fontFamily=Arial;" vertex="1" parent="1KYJLx7tUCPM3I3dIadq-215">
          <mxGeometry width="30" height="30" as="geometry">
            <mxRectangle width="30" height="30" as="alternateBounds" />
          </mxGeometry>
        </mxCell>
        <mxCell id="1KYJLx7tUCPM3I3dIadq-217" value="event_name" style="shape=partialRectangle;connectable=0;fillColor=none;top=0;left=0;bottom=0;right=0;align=left;spacingLeft=6;overflow=hidden;whiteSpace=wrap;html=1;fontFamily=Arial;" vertex="1" parent="1KYJLx7tUCPM3I3dIadq-215">
          <mxGeometry x="30" width="150" height="30" as="geometry">
            <mxRectangle width="150" height="30" as="alternateBounds" />
          </mxGeometry>
        </mxCell>
        <mxCell id="1KYJLx7tUCPM3I3dIadq-218" value="" style="shape=tableRow;horizontal=0;startSize=0;swimlaneHead=0;swimlaneBody=0;fillColor=none;collapsible=0;dropTarget=0;points=[[0,0.5],[1,0.5]];portConstraint=eastwest;top=0;left=0;right=0;bottom=0;" vertex="1" parent="1KYJLx7tUCPM3I3dIadq-208">
          <mxGeometry y="120" width="180" height="30" as="geometry" />
        </mxCell>
        <mxCell id="1KYJLx7tUCPM3I3dIadq-219" value="" style="shape=partialRectangle;connectable=0;fillColor=none;top=0;left=0;bottom=0;right=0;editable=1;overflow=hidden;whiteSpace=wrap;html=1;fontFamily=Arial;" vertex="1" parent="1KYJLx7tUCPM3I3dIadq-218">
          <mxGeometry width="30" height="30" as="geometry">
            <mxRectangle width="30" height="30" as="alternateBounds" />
          </mxGeometry>
        </mxCell>
        <mxCell id="1KYJLx7tUCPM3I3dIadq-220" value="service" style="shape=partialRectangle;connectable=0;fillColor=none;top=0;left=0;bottom=0;right=0;align=left;spacingLeft=6;overflow=hidden;whiteSpace=wrap;html=1;fontFamily=Arial;" vertex="1" parent="1KYJLx7tUCPM3I3dIadq-218">
          <mxGeometry x="30" width="150" height="30" as="geometry">
            <mxRectangle width="150" height="30" as="alternateBounds" />
          </mxGeometry>
        </mxCell>
        <mxCell id="1KYJLx7tUCPM3I3dIadq-224" style="shape=tableRow;horizontal=0;startSize=0;swimlaneHead=0;swimlaneBody=0;fillColor=none;collapsible=0;dropTarget=0;points=[[0,0.5],[1,0.5]];portConstraint=eastwest;top=0;left=0;right=0;bottom=0;" vertex="1" parent="1KYJLx7tUCPM3I3dIadq-208">
          <mxGeometry y="150" width="180" height="30" as="geometry" />
        </mxCell>
        <mxCell id="1KYJLx7tUCPM3I3dIadq-225" style="shape=partialRectangle;connectable=0;fillColor=none;top=0;left=0;bottom=0;right=0;editable=1;overflow=hidden;whiteSpace=wrap;html=1;fontFamily=Arial;" vertex="1" parent="1KYJLx7tUCPM3I3dIadq-224">
          <mxGeometry width="30" height="30" as="geometry">
            <mxRectangle width="30" height="30" as="alternateBounds" />
          </mxGeometry>
        </mxCell>
        <mxCell id="1KYJLx7tUCPM3I3dIadq-226" value="points_value" style="shape=partialRectangle;connectable=0;fillColor=none;top=0;left=0;bottom=0;right=0;align=left;spacingLeft=6;overflow=hidden;whiteSpace=wrap;html=1;fontFamily=Arial;" vertex="1" parent="1KYJLx7tUCPM3I3dIadq-224">
          <mxGeometry x="30" width="150" height="30" as="geometry">
            <mxRectangle width="150" height="30" as="alternateBounds" />
          </mxGeometry>
        </mxCell>
        <mxCell id="1KYJLx7tUCPM3I3dIadq-227" value="" style="fontSize=12;html=1;endArrow=ERoneToMany;rounded=0;exitX=0.494;exitY=1;exitDx=0;exitDy=0;exitPerimeter=0;entryX=0.5;entryY=0;entryDx=0;entryDy=0;" edge="1" parent="1" source="1KYJLx7tUCPM3I3dIadq-14" target="1KYJLx7tUCPM3I3dIadq-85">
          <mxGeometry width="100" height="100" relative="1" as="geometry">
            <mxPoint x="110" y="590" as="sourcePoint" />
            <mxPoint x="210" y="490" as="targetPoint" />
          </mxGeometry>
        </mxCell>
        <mxCell id="1KYJLx7tUCPM3I3dIadq-133" value="Points" style="shape=table;startSize=30;container=1;collapsible=1;childLayout=tableLayout;fixedRows=1;rowLines=0;fontStyle=1;align=center;resizeLast=1;html=1;fillColor=#a20025;fontColor=#ffffff;strokeColor=#6F0000;fontFamily=Arial;" vertex="1" parent="1">
          <mxGeometry x="660" y="850" width="180" height="210" as="geometry" />
        </mxCell>
        <mxCell id="1KYJLx7tUCPM3I3dIadq-134" value="" style="shape=tableRow;horizontal=0;startSize=0;swimlaneHead=0;swimlaneBody=0;fillColor=none;collapsible=0;dropTarget=0;points=[[0,0.5],[1,0.5]];portConstraint=eastwest;top=0;left=0;right=0;bottom=1;" vertex="1" parent="1KYJLx7tUCPM3I3dIadq-133">
          <mxGeometry y="30" width="180" height="30" as="geometry" />
        </mxCell>
        <mxCell id="1KYJLx7tUCPM3I3dIadq-135" value="PK" style="shape=partialRectangle;connectable=0;fillColor=#e51400;top=0;left=0;bottom=0;right=0;fontStyle=1;overflow=hidden;whiteSpace=wrap;html=1;fontColor=#ffffff;strokeColor=#B20000;fontFamily=Arial;" vertex="1" parent="1KYJLx7tUCPM3I3dIadq-134">
          <mxGeometry width="30" height="30" as="geometry">
            <mxRectangle width="30" height="30" as="alternateBounds" />
          </mxGeometry>
        </mxCell>
        <mxCell id="1KYJLx7tUCPM3I3dIadq-136" value="point_id" style="shape=partialRectangle;connectable=0;fillColor=#e51400;top=0;left=0;bottom=0;right=0;align=left;spacingLeft=6;fontStyle=5;overflow=hidden;whiteSpace=wrap;html=1;fontColor=#ffffff;strokeColor=#B20000;fontFamily=Arial;" vertex="1" parent="1KYJLx7tUCPM3I3dIadq-134">
          <mxGeometry x="30" width="150" height="30" as="geometry">
            <mxRectangle width="150" height="30" as="alternateBounds" />
          </mxGeometry>
        </mxCell>
        <mxCell id="1KYJLx7tUCPM3I3dIadq-231" style="shape=tableRow;horizontal=0;startSize=0;swimlaneHead=0;swimlaneBody=0;fillColor=none;collapsible=0;dropTarget=0;points=[[0,0.5],[1,0.5]];portConstraint=eastwest;top=0;left=0;right=0;bottom=1;" vertex="1" parent="1KYJLx7tUCPM3I3dIadq-133">
          <mxGeometry y="60" width="180" height="30" as="geometry" />
        </mxCell>
        <mxCell id="1KYJLx7tUCPM3I3dIadq-232" value="FK" style="shape=partialRectangle;connectable=0;fillColor=#e51400;top=0;left=0;bottom=0;right=0;fontStyle=1;overflow=hidden;whiteSpace=wrap;html=1;fontColor=#ffffff;strokeColor=#B20000;fontFamily=Arial;" vertex="1" parent="1KYJLx7tUCPM3I3dIadq-231">
          <mxGeometry width="30" height="30" as="geometry">
            <mxRectangle width="30" height="30" as="alternateBounds" />
          </mxGeometry>
        </mxCell>
        <mxCell id="1KYJLx7tUCPM3I3dIadq-233" value="event_id" style="shape=partialRectangle;connectable=0;fillColor=#e51400;top=0;left=0;bottom=0;right=0;align=left;spacingLeft=6;fontStyle=5;overflow=hidden;whiteSpace=wrap;html=1;fontColor=#ffffff;strokeColor=#B20000;fontFamily=Arial;" vertex="1" parent="1KYJLx7tUCPM3I3dIadq-231">
          <mxGeometry x="30" width="150" height="30" as="geometry">
            <mxRectangle width="150" height="30" as="alternateBounds" />
          </mxGeometry>
        </mxCell>
        <mxCell id="1KYJLx7tUCPM3I3dIadq-295" style="shape=tableRow;horizontal=0;startSize=0;swimlaneHead=0;swimlaneBody=0;fillColor=none;collapsible=0;dropTarget=0;points=[[0,0.5],[1,0.5]];portConstraint=eastwest;top=0;left=0;right=0;bottom=1;" vertex="1" parent="1KYJLx7tUCPM3I3dIadq-133">
          <mxGeometry y="90" width="180" height="30" as="geometry" />
        </mxCell>
        <mxCell id="1KYJLx7tUCPM3I3dIadq-296" value="Fk" style="shape=partialRectangle;connectable=0;fillColor=#e51400;top=0;left=0;bottom=0;right=0;fontStyle=1;overflow=hidden;whiteSpace=wrap;html=1;fontColor=#ffffff;strokeColor=#B20000;fontFamily=Arial;" vertex="1" parent="1KYJLx7tUCPM3I3dIadq-295">
          <mxGeometry width="30" height="30" as="geometry">
            <mxRectangle width="30" height="30" as="alternateBounds" />
          </mxGeometry>
        </mxCell>
        <mxCell id="1KYJLx7tUCPM3I3dIadq-297" value="user_id" style="shape=partialRectangle;connectable=0;fillColor=#e51400;top=0;left=0;bottom=0;right=0;align=left;spacingLeft=6;fontStyle=5;overflow=hidden;whiteSpace=wrap;html=1;fontColor=#ffffff;strokeColor=#B20000;fontFamily=Arial;" vertex="1" parent="1KYJLx7tUCPM3I3dIadq-295">
          <mxGeometry x="30" width="150" height="30" as="geometry">
            <mxRectangle width="150" height="30" as="alternateBounds" />
          </mxGeometry>
        </mxCell>
        <mxCell id="1KYJLx7tUCPM3I3dIadq-140" value="" style="shape=tableRow;horizontal=0;startSize=0;swimlaneHead=0;swimlaneBody=0;fillColor=none;collapsible=0;dropTarget=0;points=[[0,0.5],[1,0.5]];portConstraint=eastwest;top=0;left=0;right=0;bottom=0;" vertex="1" parent="1KYJLx7tUCPM3I3dIadq-133">
          <mxGeometry y="120" width="180" height="30" as="geometry" />
        </mxCell>
        <mxCell id="1KYJLx7tUCPM3I3dIadq-141" value="" style="shape=partialRectangle;connectable=0;fillColor=none;top=0;left=0;bottom=0;right=0;editable=1;overflow=hidden;whiteSpace=wrap;html=1;fontFamily=Arial;" vertex="1" parent="1KYJLx7tUCPM3I3dIadq-140">
          <mxGeometry width="30" height="30" as="geometry">
            <mxRectangle width="30" height="30" as="alternateBounds" />
          </mxGeometry>
        </mxCell>
        <mxCell id="1KYJLx7tUCPM3I3dIadq-142" value="service" style="shape=partialRectangle;connectable=0;fillColor=none;top=0;left=0;bottom=0;right=0;align=left;spacingLeft=6;overflow=hidden;whiteSpace=wrap;html=1;fontFamily=Arial;" vertex="1" parent="1KYJLx7tUCPM3I3dIadq-140">
          <mxGeometry x="30" width="150" height="30" as="geometry">
            <mxRectangle width="150" height="30" as="alternateBounds" />
          </mxGeometry>
        </mxCell>
        <mxCell id="1KYJLx7tUCPM3I3dIadq-143" value="" style="shape=tableRow;horizontal=0;startSize=0;swimlaneHead=0;swimlaneBody=0;fillColor=none;collapsible=0;dropTarget=0;points=[[0,0.5],[1,0.5]];portConstraint=eastwest;top=0;left=0;right=0;bottom=0;" vertex="1" parent="1KYJLx7tUCPM3I3dIadq-133">
          <mxGeometry y="150" width="180" height="30" as="geometry" />
        </mxCell>
        <mxCell id="1KYJLx7tUCPM3I3dIadq-144" value="" style="shape=partialRectangle;connectable=0;fillColor=none;top=0;left=0;bottom=0;right=0;editable=1;overflow=hidden;whiteSpace=wrap;html=1;fontFamily=Arial;" vertex="1" parent="1KYJLx7tUCPM3I3dIadq-143">
          <mxGeometry width="30" height="30" as="geometry">
            <mxRectangle width="30" height="30" as="alternateBounds" />
          </mxGeometry>
        </mxCell>
        <mxCell id="1KYJLx7tUCPM3I3dIadq-145" value="points_value" style="shape=partialRectangle;connectable=0;fillColor=none;top=0;left=0;bottom=0;right=0;align=left;spacingLeft=6;overflow=hidden;whiteSpace=wrap;html=1;fontFamily=Arial;" vertex="1" parent="1KYJLx7tUCPM3I3dIadq-143">
          <mxGeometry x="30" width="150" height="30" as="geometry">
            <mxRectangle width="150" height="30" as="alternateBounds" />
          </mxGeometry>
        </mxCell>
        <mxCell id="1KYJLx7tUCPM3I3dIadq-307" style="shape=tableRow;horizontal=0;startSize=0;swimlaneHead=0;swimlaneBody=0;fillColor=none;collapsible=0;dropTarget=0;points=[[0,0.5],[1,0.5]];portConstraint=eastwest;top=0;left=0;right=0;bottom=0;" vertex="1" parent="1KYJLx7tUCPM3I3dIadq-133">
          <mxGeometry y="180" width="180" height="30" as="geometry" />
        </mxCell>
        <mxCell id="1KYJLx7tUCPM3I3dIadq-308" style="shape=partialRectangle;connectable=0;fillColor=none;top=0;left=0;bottom=0;right=0;editable=1;overflow=hidden;whiteSpace=wrap;html=1;fontFamily=Arial;" vertex="1" parent="1KYJLx7tUCPM3I3dIadq-307">
          <mxGeometry width="30" height="30" as="geometry">
            <mxRectangle width="30" height="30" as="alternateBounds" />
          </mxGeometry>
        </mxCell>
        <mxCell id="1KYJLx7tUCPM3I3dIadq-309" value="earned_date" style="shape=partialRectangle;connectable=0;fillColor=none;top=0;left=0;bottom=0;right=0;align=left;spacingLeft=6;overflow=hidden;whiteSpace=wrap;html=1;fontFamily=Arial;" vertex="1" parent="1KYJLx7tUCPM3I3dIadq-307">
          <mxGeometry x="30" width="150" height="30" as="geometry">
            <mxRectangle width="150" height="30" as="alternateBounds" />
          </mxGeometry>
        </mxCell>
        <mxCell id="1KYJLx7tUCPM3I3dIadq-265" style="edgeStyle=orthogonalEdgeStyle;rounded=0;orthogonalLoop=1;jettySize=auto;html=1;entryX=1;entryY=0.5;entryDx=0;entryDy=0;endArrow=none;endFill=0;" edge="1" parent="1" source="1KYJLx7tUCPM3I3dIadq-2" target="1KYJLx7tUCPM3I3dIadq-33">
          <mxGeometry relative="1" as="geometry" />
        </mxCell>
        <mxCell id="1KYJLx7tUCPM3I3dIadq-267" style="rounded=0;orthogonalLoop=1;jettySize=auto;html=1;exitX=0;exitY=0.5;exitDx=0;exitDy=0;entryX=1;entryY=0.5;entryDx=0;entryDy=0;endArrow=none;endFill=0;" edge="1" parent="1" source="1KYJLx7tUCPM3I3dIadq-209" target="1KYJLx7tUCPM3I3dIadq-2">
          <mxGeometry relative="1" as="geometry" />
        </mxCell>
        <mxCell id="1KYJLx7tUCPM3I3dIadq-275" value="1" style="text;html=1;align=center;verticalAlign=middle;resizable=0;points=[];autosize=1;strokeColor=none;fillColor=none;" vertex="1" parent="1">
          <mxGeometry x="195" y="440" width="30" height="30" as="geometry" />
        </mxCell>
        <mxCell id="1KYJLx7tUCPM3I3dIadq-277" value="1" style="text;html=1;align=center;verticalAlign=middle;resizable=0;points=[];autosize=1;strokeColor=none;fillColor=none;" vertex="1" parent="1">
          <mxGeometry x="15" y="797" width="30" height="30" as="geometry" />
        </mxCell>
        <mxCell id="1KYJLx7tUCPM3I3dIadq-278" value="1" style="text;html=1;align=center;verticalAlign=middle;resizable=0;points=[];autosize=1;strokeColor=none;fillColor=none;" vertex="1" parent="1">
          <mxGeometry x="-90" y="490" width="30" height="30" as="geometry" />
        </mxCell>
        <mxCell id="1KYJLx7tUCPM3I3dIadq-279" value="1..*" style="text;html=1;align=center;verticalAlign=middle;resizable=0;points=[];autosize=1;strokeColor=none;fillColor=none;" vertex="1" parent="1">
          <mxGeometry x="1360" y="360" width="40" height="30" as="geometry" />
        </mxCell>
        <mxCell id="1KYJLx7tUCPM3I3dIadq-280" value="1" style="text;html=1;align=center;verticalAlign=middle;resizable=0;points=[];autosize=1;strokeColor=none;fillColor=none;" vertex="1" parent="1">
          <mxGeometry x="250" y="210" width="30" height="30" as="geometry" />
        </mxCell>
        <mxCell id="1KYJLx7tUCPM3I3dIadq-283" value="1..*" style="text;html=1;align=center;verticalAlign=middle;resizable=0;points=[];autosize=1;strokeColor=none;fillColor=none;" vertex="1" parent="1">
          <mxGeometry x="620" y="710" width="40" height="30" as="geometry" />
        </mxCell>
        <mxCell id="1KYJLx7tUCPM3I3dIadq-285" value="1..*" style="text;html=1;align=center;verticalAlign=middle;resizable=0;points=[];autosize=1;strokeColor=none;fillColor=none;" vertex="1" parent="1">
          <mxGeometry x="305" y="490" width="40" height="30" as="geometry" />
        </mxCell>
        <mxCell id="1KYJLx7tUCPM3I3dIadq-287" value="1" style="text;html=1;align=center;verticalAlign=middle;resizable=0;points=[];autosize=1;strokeColor=none;fillColor=none;" vertex="1" parent="1">
          <mxGeometry x="510" y="520" width="30" height="30" as="geometry" />
        </mxCell>
        <mxCell id="1KYJLx7tUCPM3I3dIadq-310" style="rounded=0;orthogonalLoop=1;jettySize=auto;html=1;entryX=0;entryY=0.5;entryDx=0;entryDy=0;exitX=1.002;exitY=0.794;exitDx=0;exitDy=0;exitPerimeter=0;endArrow=none;endFill=0;" edge="1" parent="1" source="1KYJLx7tUCPM3I3dIadq-2" target="1KYJLx7tUCPM3I3dIadq-295">
          <mxGeometry relative="1" as="geometry">
            <mxPoint x="250" y="540" as="sourcePoint" />
            <Array as="points">
              <mxPoint x="300" y="524" />
              <mxPoint x="300" y="730" />
              <mxPoint x="300" y="955" />
            </Array>
          </mxGeometry>
        </mxCell>
        <mxCell id="1KYJLx7tUCPM3I3dIadq-314" style="rounded=0;orthogonalLoop=1;jettySize=auto;html=1;endArrow=none;endFill=0;exitX=0;exitY=0.5;exitDx=0;exitDy=0;" edge="1" parent="1" source="1KYJLx7tUCPM3I3dIadq-292">
          <mxGeometry relative="1" as="geometry">
            <mxPoint x="230" y="509" as="targetPoint" />
            <Array as="points">
              <mxPoint x="600" y="555" />
              <mxPoint x="600" y="400" />
              <mxPoint x="440" y="400" />
              <mxPoint x="280" y="400" />
              <mxPoint x="280" y="509" />
            </Array>
          </mxGeometry>
        </mxCell>
        <mxCell id="1KYJLx7tUCPM3I3dIadq-315" style="rounded=0;orthogonalLoop=1;jettySize=auto;html=1;entryX=1.002;entryY=0.19;entryDx=0;entryDy=0;entryPerimeter=0;endArrow=none;endFill=0;" edge="1" parent="1" source="1KYJLx7tUCPM3I3dIadq-289" target="1KYJLx7tUCPM3I3dIadq-2">
          <mxGeometry relative="1" as="geometry">
            <Array as="points">
              <mxPoint x="260" y="235" />
              <mxPoint x="260" y="400" />
              <mxPoint x="260" y="506" />
            </Array>
          </mxGeometry>
        </mxCell>
        <mxCell id="1KYJLx7tUCPM3I3dIadq-316" style="rounded=0;orthogonalLoop=1;jettySize=auto;html=1;entryX=1.005;entryY=0.095;entryDx=0;entryDy=0;entryPerimeter=0;endArrow=none;endFill=0;exitX=0;exitY=0.5;exitDx=0;exitDy=0;" edge="1" parent="1" source="1KYJLx7tUCPM3I3dIadq-149" target="1KYJLx7tUCPM3I3dIadq-2">
          <mxGeometry relative="1" as="geometry">
            <Array as="points">
              <mxPoint x="960" y="385" />
              <mxPoint x="960" y="90" />
              <mxPoint x="630" y="90" />
              <mxPoint x="231" y="90" />
              <mxPoint x="231" y="190" />
              <mxPoint x="230" y="290" />
            </Array>
          </mxGeometry>
        </mxCell>
        <mxCell id="1KYJLx7tUCPM3I3dIadq-319" style="edgeStyle=orthogonalEdgeStyle;rounded=0;orthogonalLoop=1;jettySize=auto;html=1;entryX=0;entryY=0.5;entryDx=0;entryDy=0;endArrow=none;endFill=0;" edge="1" parent="1" source="1KYJLx7tUCPM3I3dIadq-118" target="1KYJLx7tUCPM3I3dIadq-239">
          <mxGeometry relative="1" as="geometry" />
        </mxCell>
        <mxCell id="1KYJLx7tUCPM3I3dIadq-320" style="edgeStyle=orthogonalEdgeStyle;rounded=0;orthogonalLoop=1;jettySize=auto;html=1;entryX=0;entryY=0.5;entryDx=0;entryDy=0;endArrow=none;endFill=0;" edge="1" parent="1" source="1KYJLx7tUCPM3I3dIadq-134" target="1KYJLx7tUCPM3I3dIadq-236">
          <mxGeometry relative="1" as="geometry">
            <Array as="points">
              <mxPoint x="950" y="895" />
              <mxPoint x="950" y="475" />
            </Array>
          </mxGeometry>
        </mxCell>
        <mxCell id="1KYJLx7tUCPM3I3dIadq-321" style="edgeStyle=orthogonalEdgeStyle;rounded=0;orthogonalLoop=1;jettySize=auto;html=1;endArrow=none;endFill=0;" edge="1" parent="1" source="1KYJLx7tUCPM3I3dIadq-64" target="1KYJLx7tUCPM3I3dIadq-242">
          <mxGeometry relative="1" as="geometry" />
        </mxCell>
        <mxCell id="1KYJLx7tUCPM3I3dIadq-322" value="1" style="text;html=1;align=center;verticalAlign=middle;resizable=0;points=[];autosize=1;strokeColor=none;fillColor=none;" vertex="1" parent="1">
          <mxGeometry x="840" y="868" width="30" height="30" as="geometry" />
        </mxCell>
        <mxCell id="1KYJLx7tUCPM3I3dIadq-323" value="1..*" style="text;html=1;align=center;verticalAlign=middle;resizable=0;points=[];autosize=1;strokeColor=none;fillColor=none;" vertex="1" parent="1">
          <mxGeometry x="1000" y="450" width="40" height="30" as="geometry" />
        </mxCell>
        <mxCell id="1KYJLx7tUCPM3I3dIadq-324" value="1..*" style="text;html=1;align=center;verticalAlign=middle;resizable=0;points=[];autosize=1;strokeColor=none;fillColor=none;" vertex="1" parent="1">
          <mxGeometry x="1000" y="420" width="40" height="30" as="geometry" />
        </mxCell>
        <mxCell id="1KYJLx7tUCPM3I3dIadq-325" value="1..*" style="text;html=1;align=center;verticalAlign=middle;resizable=0;points=[];autosize=1;strokeColor=none;fillColor=none;" vertex="1" parent="1">
          <mxGeometry x="1000" y="390" width="40" height="30" as="geometry" />
        </mxCell>
        <mxCell id="1KYJLx7tUCPM3I3dIadq-326" value="1..*" style="text;html=1;align=center;verticalAlign=middle;resizable=0;points=[];autosize=1;strokeColor=none;fillColor=none;" vertex="1" parent="1">
          <mxGeometry x="1000" y="360" width="40" height="30" as="geometry" />
        </mxCell>
        <mxCell id="1KYJLx7tUCPM3I3dIadq-327" value="1" style="text;html=1;align=center;verticalAlign=middle;resizable=0;points=[];autosize=1;strokeColor=none;fillColor=none;" vertex="1" parent="1">
          <mxGeometry x="850" y="150" width="30" height="30" as="geometry" />
        </mxCell>
        <mxCell id="1KYJLx7tUCPM3I3dIadq-328" value="1" style="text;html=1;align=center;verticalAlign=middle;resizable=0;points=[];autosize=1;strokeColor=none;fillColor=none;" vertex="1" parent="1">
          <mxGeometry x="840" y="470" width="30" height="30" as="geometry" />
        </mxCell>
        <mxCell id="1KYJLx7tUCPM3I3dIadq-329" value="1..*" style="text;html=1;align=center;verticalAlign=middle;resizable=0;points=[];autosize=1;strokeColor=none;fillColor=none;" vertex="1" parent="1">
          <mxGeometry x="630" y="210" width="40" height="30" as="geometry" />
        </mxCell>
        <mxCell id="1KYJLx7tUCPM3I3dIadq-330" value="1..*" style="text;html=1;align=center;verticalAlign=middle;resizable=0;points=[];autosize=1;strokeColor=none;fillColor=none;" vertex="1" parent="1">
          <mxGeometry x="625" y="530" width="40" height="30" as="geometry" />
        </mxCell>
        <mxCell id="1KYJLx7tUCPM3I3dIadq-331" value="1" style="text;html=1;align=center;verticalAlign=middle;resizable=0;points=[];autosize=1;strokeColor=none;fillColor=none;" vertex="1" parent="1">
          <mxGeometry x="275" y="370" width="30" height="30" as="geometry" />
        </mxCell>
        <mxCell id="1KYJLx7tUCPM3I3dIadq-332" value="1" style="text;html=1;align=center;verticalAlign=middle;resizable=0;points=[];autosize=1;strokeColor=none;fillColor=none;" vertex="1" parent="1">
          <mxGeometry x="220" y="520" width="30" height="30" as="geometry" />
        </mxCell>
        <mxCell id="1KYJLx7tUCPM3I3dIadq-333" value="1..*" style="text;html=1;align=center;verticalAlign=middle;resizable=0;points=[];autosize=1;strokeColor=none;fillColor=none;" vertex="1" parent="1">
          <mxGeometry x="620" y="960" width="40" height="30" as="geometry" />
        </mxCell>
        <mxCell id="1KYJLx7tUCPM3I3dIadq-334" value="1..*" style="text;html=1;align=center;verticalAlign=middle;resizable=0;points=[];autosize=1;strokeColor=none;fillColor=none;" vertex="1" parent="1">
          <mxGeometry x="620" y="890" width="40" height="30" as="geometry" />
        </mxCell>
        <mxCell id="1KYJLx7tUCPM3I3dIadq-335" value="1" style="text;html=1;align=center;verticalAlign=middle;resizable=0;points=[];autosize=1;strokeColor=none;fillColor=none;" vertex="1" parent="1">
          <mxGeometry x="20" y="490" width="30" height="30" as="geometry" />
        </mxCell>
        <mxCell id="1KYJLx7tUCPM3I3dIadq-341" style="rounded=0;orthogonalLoop=1;jettySize=auto;html=1;entryX=-0.002;entryY=0.838;entryDx=0;entryDy=0;entryPerimeter=0;endArrow=none;endFill=0;exitX=0;exitY=0.5;exitDx=0;exitDy=0;" edge="1" parent="1" source="1KYJLx7tUCPM3I3dIadq-98" target="1KYJLx7tUCPM3I3dIadq-2">
          <mxGeometry relative="1" as="geometry">
            <Array as="points">
              <mxPoint x="-70" y="825" />
              <mxPoint x="-70" y="525" />
            </Array>
          </mxGeometry>
        </mxCell>
        <mxCell id="1KYJLx7tUCPM3I3dIadq-342" value="1" style="text;html=1;align=center;verticalAlign=middle;resizable=0;points=[];autosize=1;strokeColor=none;fillColor=none;" vertex="1" parent="1">
          <mxGeometry x="20" y="520" width="30" height="30" as="geometry" />
        </mxCell>
        <mxCell id="1KYJLx7tUCPM3I3dIadq-343" value="1" style="text;html=1;align=center;verticalAlign=middle;resizable=0;points=[];autosize=1;strokeColor=none;fillColor=none;" vertex="1" parent="1">
          <mxGeometry x="275" y="490" width="30" height="30" as="geometry" />
        </mxCell>
        <mxCell id="1KYJLx7tUCPM3I3dIadq-344" style="rounded=0;orthogonalLoop=1;jettySize=auto;html=1;endArrow=none;endFill=0;exitX=1;exitY=0.5;exitDx=0;exitDy=0;entryX=0;entryY=0.5;entryDx=0;entryDy=0;" edge="1" parent="1" source="1KYJLx7tUCPM3I3dIadq-209" target="1KYJLx7tUCPM3I3dIadq-130">
          <mxGeometry relative="1" as="geometry">
            <mxPoint x="630" y="490" as="targetPoint" />
            <Array as="points">
              <mxPoint x="560" y="515" />
              <mxPoint x="560" y="440" />
              <mxPoint x="630" y="440" />
              <mxPoint x="630" y="525" />
            </Array>
          </mxGeometry>
        </mxCell>
        <mxCell id="1KYJLx7tUCPM3I3dIadq-345" value="1..*" style="text;html=1;align=center;verticalAlign=middle;resizable=0;points=[];autosize=1;strokeColor=none;fillColor=none;" vertex="1" parent="1">
          <mxGeometry x="625" y="500" width="40" height="30" as="geometry" />
        </mxCell>
        <mxCell id="1KYJLx7tUCPM3I3dIadq-347" value="1..*" style="text;html=1;align=center;verticalAlign=middle;resizable=0;points=[];autosize=1;strokeColor=none;fillColor=none;" vertex="1" parent="1">
          <mxGeometry x="630" y="180" width="40" height="30" as="geometry" />
        </mxCell>
        <mxCell id="1KYJLx7tUCPM3I3dIadq-349" style="edgeStyle=orthogonalEdgeStyle;rounded=0;orthogonalLoop=1;jettySize=auto;html=1;endArrow=none;endFill=0;" edge="1" parent="1" source="1KYJLx7tUCPM3I3dIadq-82">
          <mxGeometry relative="1" as="geometry">
            <mxPoint x="520" y="504" as="targetPoint" />
            <Array as="points">
              <mxPoint x="550" y="205" />
              <mxPoint x="550" y="504" />
            </Array>
          </mxGeometry>
        </mxCell>
        <mxCell id="1KYJLx7tUCPM3I3dIadq-350" value="1" style="text;html=1;align=center;verticalAlign=middle;resizable=0;points=[];autosize=1;strokeColor=none;fillColor=none;" vertex="1" parent="1">
          <mxGeometry x="555" y="490" width="30" height="30" as="geometry" />
        </mxCell>
        <mxCell id="1KYJLx7tUCPM3I3dIadq-351" value="1" style="text;html=1;align=center;verticalAlign=middle;resizable=0;points=[];autosize=1;strokeColor=none;fillColor=none;" vertex="1" parent="1">
          <mxGeometry x="520" y="480" width="30" height="30" as="geometry" />
        </mxCell>
      </root>
    </mxGraphModel>
  </diagram>
</mxfile>
